<mxfile host="app.diagrams.net" modified="2023-04-22T20:30:51.930Z" agent="Mozilla/5.0 (Windows NT 10.0; Win64; x64; rv:109.0) Gecko/20100101 Firefox/112.0" etag="do_YajhgvZzKGC28QSc4" version="21.1.8" type="device">
  <diagram name="Page-1" id="bl4ekqEsmygjX_sZ6mQy">
    <mxGraphModel dx="561" dy="892" grid="1" gridSize="10" guides="1" tooltips="1" connect="1" arrows="1" fold="1" page="1" pageScale="1" pageWidth="1100" pageHeight="850" math="0" shadow="0">
      <root>
        <mxCell id="0" />
        <mxCell id="1" parent="0" />
        <mxCell id="Cojx2FjzvkP0SxORyvp9-6" value="" style="rounded=0;whiteSpace=wrap;html=1;strokeWidth=0;" vertex="1" parent="1">
          <mxGeometry x="56" y="265" width="165" height="235" as="geometry" />
        </mxCell>
        <mxCell id="Cojx2FjzvkP0SxORyvp9-2" value="" style="shape=image;verticalLabelPosition=bottom;labelBackgroundColor=default;verticalAlign=top;aspect=fixed;imageAspect=0;image=data:image/png,iVBORw0KGgoAAAANSUhEUgAAAaMAAAIXCAYAAAAxJjEKAAAgAElEQVR4XuydBXwUxxfHf/FACIGEoMHd3YoVK1YgOAWKu7trobi7BG3xP1LcaYHiUNzdEyyul+Q/by8b7i53uctxSS7JmzafI7nZke/Mzm/fm7e7FgAixY+URo6cCD+/ADRo1ATP3wfgzIV7ePv+K8IjIuQs/MkEmAATYAJMwOQELGQxGjJkHAoUyIvnH21x+t+7Jq+IC2QCTIAJMAEmoIuAJEZkEeXOnQtnbvjhyYsPTIsJMAEmwASYQIISkMSoT59hsHcpjnNXHiZo5VwZE2ACTIAJMAEiYDFs2LjIKtXrYsbyo0yECTABJsAEmECiELDo2XNIZO6i1bH70OVEaQBXygSYABNgAkzAonnzjpHB9oXx8bMv02ACTIAJMAEmkCgEJDF6HZAt3ip3SZ8GObJlQO6cGZHBOS0iIyPh5x+ET1/88Jl+vP2lz4DAkHhrAxfMBJgAE2AC5k3ApGLk5JgaVSsWQtkSuVEgX1ZJhOztbAwi4OMbiNsPXuHm3Ze4euMZ7j58bdBxnIkJMAEmwASSPgGTiFGtqsXQqE5pVKtUOJrIjft3sWn3Lly7exsffD7j6eNnMWiVLFMC6axTo2ThIiglfqpXqIhcbtmlfF6ffLBy43EcOH496VPmHjABJsAEmECsBL5LjNo1r4pfW1UHueIovXjzGos3rsfmw/vw2esTbLI4IqSQ+C6NNSKzi08rEUluZRn9afHQB7C0gMX9r7B+FYjwwFCkTuOAlj81wMBOXYRAFcWzl56YNGcnHj55x0PJBJgAE2ACyZSAUWKUPasL5v/WETndXCUs3r6+QoTW4bclC2GVwxFhBdMgskg6wDU1YCPEx1r8yJ/0b80fWaA+BcHi7lfYXvgIxcX3yJY1KzbOmocfK1bGkrVH8MfOM8l0GLhbTIAJMIGUTSDOYlRI7AWtnNMTqVPZSuT+vnQB7UcMwqcgX4TWFOJUJP038bGxiilG9LdoMRKWEv07Sows6FNYShD/R3oGwuJ/z2C59zk6Nm+JdTPnYuuef7Fg1cGUPWLceybABJhAMiQQJzFKZW+LzcsHwi2rs4SCLCH6iSjtjMgqGQFHEaxgHSVAZAlJP1HiI/9O32taSsJ9JwkRufEkMaIHQ4gkIu8iH3vDdsgF9G3RHgvGT8L6bX9jxYZjyXAouEtMgAkwgZRLIE5i1KfzT+jS9keJVgdhDe06ehjB9TIB+dMqhUS2hKI/ySWnIU7y71HWkYVsJcn7SeIQSYzoWeJCjBAuBOnRV1j1/AdX/zoo7SMNGr8eF64+Trmjxj1nAkyACSQzAgaLkYuzI/ZuGAE7W2t0HT0cWw/tQ3BrNyBjKqV4qFpCskWk+TfJIvrmurPQ3Eciq4h+SIfe+gOPvGHx0BuIiITlxodYO3MOOjVvJe5TCkbrnguk+5M4MQEmwASYQNInYLAYjR3UDO4NymPv8aNo2a8XwjvmUQoRJVWRURMiVatI/d/RQqQqSEKIIs+8g/UfzxH53ztY2qeBQ6aCCH9+Hwo7BQZ36orpI0dLVR49fRMTZm1P+iPAPWACTIAJMAEYJEYZhFV0aMsYKWqu6M918D63cJ3RHhElsmRU3XKqrjpblX0jjf0jC5VjIr2CYXH4JSz3vQLe+yFDuRbIWr0rHLIWlaqICPCF75BGqF6zDJZtXRQ9bD2GrZJukuXEBJgAE2ACSZuAQWLUu1NddP2lJhZtWIuxK+YhsH0OwF5YOpS0WkLaLCLxtyhxihai429gce49LP4R1lAGV7hV6Q3Xcq1gnUrsQWmk0DsX8XVcO5x6fgZuuYR7UKTrt56j98g1SXsEuPVMgAkwASZgmGV0fMd4OKVNjR/aNsPFyJeIrJ3lm1Vkq0N4SKTeBwJh4pXlIlLO4oHY+6GoudtfhTUltplufoZFKns4FauOHBX6wiF7MfG9KEuOpNMyOJ/GNkbJvKmx7a9v7rnmXefizbsvPJRMgAkwASaQhAnotYxqVimKWRPaSy66DOVKILxNLiC7QyxWUVSQwp0vsFp2LxpN6uwFJaFJk7MEbMMckTZXeThkKQJrB3FzLIkQRdnJn5YUUqeePpxZhLf7hkl/LJCvMP7edhbp0qbD6j9OwGPzqSQ8BNx0JsAEmAAT0CtGJEQkSBt370SvyeMQ0j//N6tIV7DChyBYzb2LbHmbI3vpjpLIWKiKTZTohPi9ReDn+0KQ0iNVlpKwdnRRFyaV8bkxIweCehVGRPPiSNdmG1qUqIs1s9ZLe0a0d2TOqY9wc9Lz+3JmVz6xghMTSAwCj56+F4E/N7Bp5z/ivnKV+/kSozFcJxPQIKBXjP7ZOxl0s+uQaVOw4sJehDTNqixCvnFVM3ghNAJW02/DJW0Z5C8/VIiLdbTVoypIz/4eiq/3/0JkKjupOIugEGSpPgpZa49TFyRhTQW8vYEHC8oh+OpgIK29eJbdB9g13YD7p54gSyY3VG080SwHNl+uzJgx7hcWIbMcnZTbqIdP32H01E2Se9vCInbXeMqlxD1PaAKxilG+3JmxZcVAqU212rfB39bPvkXRaY2gs4TV/17D5mogSlabA2t7xyghUhEkYRU9Oz8KX14fRejY2ogolwMWdtawuPMOtqMPwblAU+RxF0EJIp//mzvwfXoOdhky48W2Dgh+pAzrppShyWZMaD4YAzoPQuNfZ8Hzo3joqpmlnWuGsBCZ2Zhwc5QESJDadPtdXCvaw9LKRohSTNc4s2ICCUkgVjFqWLs0Jo9oJbUnW/UKeF9aPH27qHj2nBTOrfmoH2Ugg9WA8yhcdhScMoiABDXXnBAkITB+n67h8YnuCJlYTylEqcTf7cUPfQaHwe4nD+SqvQCeZ/6A7+OzsEzlhEiFD2zSW6mJkfWoA3D3zYMdK3ZLbjpzC/Em11wXEYHIiQmYK4EFK/dgw5ZjsLZNLU5N8azJWIKHzLUP3K7kQyBWMerWriZ6dawr9da6QK5vwQvyo3/8w6TouMjqwnWXVjyX7oUfrBbdRaUaHhpCRMEJSuvoxdUp+GR7FSFTG0gCJIlRKnGs9GktnrRwBTZzz8DGogAK9tgK+8x58OrgJHy8vEBNjCx330Khjc9x56/bGDt9K06cuW1Wo8JWkVkNBzdGC4GHT97Cvd1I2KVOBxtbB1hYinOQExNIJAKxitGIvk3QqkmlmGIk9ossrn+G1elPsIiwgKKUIyI75PsmRlVWqu/7REfLWeP+xR7wrSiO+aXsNzEiy8iOLCvx4xME+1orkL/NHqTNUzW6nGuTnRDyxy+IrJhTao/FpZew+3UrAh8pMG3Bbuw7ejWREGqv9vKR6WbVHm4ME9BGIF+pZrBPnR52qdKJ60Wxf8vWEU+URCIQqxhNHNoCP/8kREPTMnouLKBdr5DXtRmCw73xNu01hA8q8k2MKiyNGa4dJUj3rvaGXwVLKFqXUVpDQoRozyj6fUfi2ah2HbfDLWcfZC7fO9rCur+lIXyrKaAYr7TUVMXot/m7cODYtURCyGJkVuC5MXEikKd4I9gKV3gqBxfhrhPWEe8dxYkfZzYdgVjFaPyQ5mhSr1wMMbJa/wSu3rmRN2trvPb9B2+cryNioHh0j3gHkdXMWyhXYgas7ejNrhr3D4nfn9wcjy+FPyKsYwWhOlEWEd04S9ZW1ENS7QcfQRbHpshaZXh0GZ/u7sCLv0ci5O9eyog6YRml77Mfn657S2+CPXzyP9NRMUFJbBmZACIXEe8EchetD1v7tEiVxhU24lmQUnQdJyaQCARiFaN+XeuhU+sa6mKUwwFWc+4iv01tuLhUxPvgq3gVcRaKltmlt7RaX/VFmYLjxVWWECMt9xZ5vtmLN37bEDzpJ/F4IHpEUNQTHOQX64na7Lv/D7lKjkWGIq2/lSGE7IZHaYQ0zipZR7Rn1Pi4Jfas2ItxM7bh+D+3EgGf7ipZjMxqOLgxOgjkKloPtnZCjBxdhSg5shjxTEk0ArGKUQMRTTclKpquQusmuJrqPSJzCjHa9gKlbdrCzikHFBYKPA86hs/+d4Q15IjCmTrCIXV2rUJEllJI6Efcu94Lwb+WlqLpol++F/ViPct772E3/TiKtT4Bu3Rif0hF0ALEDbIPd7ojvJALLP97hSPi6QvVK/6IvqM8cPXms0SDqK1iFiOzGg5uDIsRzwEzJxCrGOXJmQnbVg2SutBl1DBsfHQCkQ3cpKcr5Ed1uDgJF16UK05hESb5nLW55qIFJSqv5/t9ePNmPUL6VUVkLvHUBbqBllx0FNo99xRc7Cojd5XZ2p/a4P8W7/eMRs6wcJy7elpqW4uu8/D63WezQs1iZFbDwY3RJUZFhGUkLKJUjhnZMuJZkqgE9D6B4dj2cUjn5IApixdgzq71CGifXRKjvCFl4JpeRLtpccVpFSSN/aNXL1fik9cxKMpnR3j+DLDwDoLNpTewD3ZCvsqLhVUkrCsdjxHyP7wO2T/fwr4LOyR4lRuOR3iEeCCrGSV9YuTvHwpLIcCpU4uwdpX06VMQ0qWzgzUJtMbfM2SIen+Ujn5evfoB5cplNiMK3BRzJ5CLxcjchyjFtE+vGI3s1wQtG1fCjft3Ua5pI4T3yA/r/W+R/nka5HdqCQstQQoxBEpHnq9fL8Hzw24E+T2DpbCqnJzLw63YEFiL+x40BU21Hv+jG5Dd+44kRh8/+6JR+5lmN2D6xOjLlyC8fx+AokUzRLddoYjAxYvvkTNnWmTPLp5eEZUo78ePQShY0DnWfrIYmd00MPsGsRiZ/RClmAbqFaMyJXJj5eweEhC3ahXxrgg9YFHEHZz8hLKWXSXLSKsgGSJSklWlfDJDbBaW4uNLRCiCEfbiDiK8PRHx4hby5XfDnvM7cPrfuxg1dbNZDVjZEnmwYnZ3vW26cOEdKlbMIllIlN6/94e/uJGYrKbSpTNFH//w4Re4uqaCs7PSMgoKUsDHJwROTnZIReHxUUlTjCLE69p9fUMQJl7jkT69vZq1JZfh4GADR0dx931UIkGkW03o2M+fg5EmjY34UX5P7aL2ubjYw4buCVNJYcJtSvk1y9MLgTMkKgEWo0TFz5WrENArRpT3fx5DkcMtg/Sw1JX7RSRcK7FvtPoxikU0hYOleONrlKsu+kGoBguRFRS+7xERHgaF91vx2J9gRIQGQvHlNdKIRfbr4ztqg1W0cjkUKJADhUsVQcUfK0mf81cexLa9/5rVoP74QxHMnthBb5uePPmKtGntkDFjainvrVsfRf/S4/79zyhc2AX2dDOwSJcvv0eFCsp3SN27J94DJcSCxOXr12BEivuyihQR+24iqYqRn1+olDdLFhFwIiIVSehy5Egr1UV/J7Ehtx+JVUBAGEqWzCiJ4vPnPpLo0L9dXFLB0zMAtiLikeqxE/eEkdi8fu0nWW9yu1++9IG3dwgyZXKQyqIy5fL0QuAMiUqAxShR8XPlcRWjpvXLYdzg5tI7jXJUrwT/GulENNtXOL9Kj/yW9dQsG4PcdvI+kxAt32tC3J5fRc6C+eDkkg524vl2JDSUSGzSpksb/alt5DoNWIb7j9+a1aCumtMDpYvn1tsmsm7evPGTXHVkkdy+/VGyiGixp0SuOlUXHQkKWTR58gg3ZlQiQSNhIuFQFaMrV96jWDHXaMtJtni8vAKFWISqufzevVOWmzdvOkmMQkIUKCQiFuVE5ZKoZcumdB1SWTdueEn7UyQ8r175ibq+uRupPMpD4sfJvAmwGJn3+KSk1hlkGVkL8di7YTgyZnCSAhlmb/ZAUCUnWB5+h7JBbYT7R7iPyBqKsohiFSQNqyk8xBefD0/HzPWz0bxzyzix//TFDw3bzYjTMfGd2VAXndwOsnpoUf/wIUD6U9asadSEiVx0mTOL/TThkqN/h4aGq7nbQkLCpe9y53aKFqPgYAXu3PmkNZiByiDxkq0aWVxu3vRC2bKZJTFKndpasnLkdPfuJ2EJOUkuOzmdO/cGVau6ScL56VNgtBUnl0eWlep+WHxz5/KNI8BiZBw3Psr0BAwSI6qWHgtEjwci66hG+1Z44vMOIZ8CkNknJ3JaVNG67xPjhXo63HfBb/4TFtIOIUYt0H/SILjlcjOop5t2nsHStUcMypsQmQrkzSLtr6VxsDe4OtlV9/atH4oXd40WGtllpyoqlJf2byjaTjVR5B39yJYRWSX//eeF8uVjRtZRGbRHpCo2tA/07Jk3SpRwlcSIXHGqYhWbGJEVFBwcLkT0m3hR26zEfWOa+0oGQ+GMCUaAxSjBUHNFeggYLEZUzoZFfVGkoFu0IN19+FDcHmSJ0j7NxLaRWIC1iI2h+0ihX18i/MUp+L1+jAGTB6HToC6Siy621LrHArx4/THRB9kxjT3auldBjw6149wWctWRENC+DomBnGiRJ4uDQr/z5ROv7RCJROPhw88oVSqjlJ+SHMhA/1Z105GA0J6QLDq0h0QiRQKhWQbldXa2F664NHEWIyrz+nVPsUfkKvaUlHtc5Loj0ZQDM+IMhQ9IMAIsRgmGmisypRi5ZXXG1hWDxKKjdNeQy2760iXIHOwMt2CxEOu45ygu+0ghng8QfHc/Qnw/I3P2rPihdmVpz6hCjYrSp5yu/PcU/casTZQBzpopPTJnSocCebKibMncqFH5W7uMadClS++k/RUSAznJYd7Fi2eQ3HBy+vgxEE+feosgBmUEXvr0dpJY0cKvKkbh4RFSoAIFFFBeG7EXR/s6FIygWQbtB8n7O3G1jGTxefDgixTkQIncfBRUIQumMUz4mIQhwGKUMJy5Fv0E4mQZUXF1a5TA72PaRpf8+vVbNKvXGooXlkiVuhwsbaIsJA0rKS77SBTurfD/oIy0+/IMQa9uITw4EM06NcesDXOlupt3nSu9Njmhkr77hhKqHVwPEzAlARYjU9Lksr6HQJzFiCrr9WsddGtfK7peX29fjOo4ChdPXYW9XRVYilcZ67SSNK0nnWHgypfxBYrXjvtf36MmRLOX7cP/9l/8nn7H+VgWozgj4wOSAAEWoyQwSCmkiUaJEbFRffGezGrIL4NxbPdR8ezTPOL9KAW/WUkaAmTIPlJEpAL+9w4i+NU1NSHaffAyZi7Zm+DDw2KU4Mi5wgQgwGKUAJC5CoMIGC1GVDpt2g/t3Uitot0b/oe5o+fC+4s3bG3yiQcwFlK3lPSEf4eH+SPky2MoPlyBRXgo5v4xF3XdxesmRDpz4T6GT/nDoI6ZOhOLkamJcnnmQIDFyBxGgdtABL5LjKgAiq4bM8AdBfNl1S5KX32Ety2LeL1EZvFGycywsndSv0lWWE0RUCDE7wVCvJ8i9MsT8aIvB3Qb1g2dB3eNjqjbvOssFnscEZvkUbvkCTx+p3dPEq/GUA+pTuAmcHVMwOQEWIxMjpQLNJLAd4uRXG+rJpXQt3O9GAs2WUqX/r6II/87iqAA5Y2d1jZ2cEyfGYqwEPh9/SD9zd7BAVXqVJaevkA3v8ph3b5+QZi7Yj+OnLphZBdNc5ihT1UwTW1cChNIGAIsRgnDmWvRT8BkYiQJigj5rlqxkBRx90O5AtEh4HIz7t+4Bwp2oB/6t+qjflTDtil/SKgC2/b8iw3b/0ZAYIj+nsRzDvmm33iuhotnAglKgMUoQXFzZbEQMKkYqdZDwlS+VF7JfVcoXzbpM5OrcNHFkgKDQnHt5lOcuXgfJ8/egX9AsFkNHltHZjUc3BgTEGAxMgFELsIkBOJNjHS1ziV9GjimSSX92Noo79gPDVPA86M3vD75mqRT8VUIPWlh5ZyeyJ+bX2AXX4y53IQlwGKUsLy5Nt0EElyMkvpgkCD90qwquqvcZ5XU+8TtT7kEWIxS7tibW89ZjIwcEXokUNtmVdBYPECWo+yMhMiHJToBFqNEHwJuQBQBFiMTTAV6bUTZkuJHvBW3QN6sLE4mYMpFJAwBFqOE4cy16CfAYqSfkVE5+CZZo7DxQQlMgMUogYFzdToJsBjF0+RgMYonsFysSQmwGJkUJxf2HQRYjL4DXmyHshjFE1gu1qQEchWtB1u7tOKxXa6wtXcUrxsRb2zmxAQSgQCLUTxBZzGKJ7BcrMkIPHzyFvWadmUxMhlRLuh7CLAYfQ+9WI5lMYonsFysyQjMW7oNS1dsEBaRsIzSuMLGPg1bRiajywXFlQCLUVyJGZifxchAUJwtUQiQVfRT4y7iPZY24gHGTuKVLy6wtnUQYqR8nT0nJpDQBFiM4ok4i1E8geViv5sACVHfIb/h6bMX4qHFqWGfOj3sUqUTwiSeSh/1OvvvroQLYAJxJMBiFEdghmZnMTKUFOdLKAIkQgeOiFexLFsLC0tLWFnZSUELdqnTwYasIkvl47k4MYHEIMBiFE/UIyPDERbsjyD/TwgN8RPvYQoHEudVTPHUQy42SRGwULbWgv6ztIKlla0QoNTSfpG1+LQSv7NVlKRGNNk1lsUonoY0MlK8MjAsCKFBPlCEBgkxihA1sRrFE24uVi8BpRpZCDechZU1rK3thQilEq45eyFMNrxXpJcfZ4hvAixG8UY4EhHhCoSLV6dHis9IFqJ4I80FG04g2jISLjlLIUrSfUW8T2Q4QM4ZbwRYjOINLRUsJEh6TTpbRPGKmQuPIwFJkliE4kiNs8cvARaj+OXLpTMBJsAEmIABBAwWo3y5M6JN03IoWTw77GxNG3VDrxi/efs1tv91FU+eexnQbM7CBJgAE2ACyYmAQWKUN1cGzJjQwuQipAmSRGnM1F14+uJTcmLMfWECTIAJMAE9BPSKEUWBjR/SCBXK5kkQmJevPcO0BQc5uidBaHMlTIAJMAHzIKBHjCgiLAz7twxJsNaSddSy8xIp3JTuiuDEBJgAE2ACyZ9ArGJEVlF4WDAObh+RoCQatZkDKxt7to4SlDpXxgSYABNIPAJ6xSgsxB+Hd45J0BY2aDUDNnb0BGF+aGOCgufKmAATYAKJRECPGCkfaXP4f2MTtHkNWk7nx9knKHGujAkwASaQuARYjBKXP9fOBJgAE2ACgsB3i9Ht+2+NDjMoVjib1kFgy4jnJhNgAkwgZRH4LjHad+Qm1m4+ZzSxgT1qoXb1wjGOZzEyGikfyASYABNIkgQSVYymjXVHcS3WEYtRkpxL3GgmwASYgNEEvkuMqNZnLz8hIDAkzg1wSG2HPDkzsJsuzuT4ACbABJhA8iPw3WIUH0jYMooPqlwmE2ACTMB8CbAYme/YcMuYABNgAimGAItRihlq7igTYAJMwHwJfJcY+QeEYP/Rm0b1Lo2DHRrXK8l7RkbR44OYABNgAsmLwHeJ0dbdl7FtzxWjiXBot9Ho+EAmwASYQLIi8F1idPHqM8xYdNgoIKlT2WLskIYc2m0UPT6ICTABJpC8CHyXGMUXCo6miy+yXC4TYAJMwDwJsBiZ57hwq5gAE2ACKYoAi1GKGm7uLBNgAkzAPAmwGJnnuHCrmAATYAIpisB3ixE/tTtFzRfuLBNgAkwgXgh8lxjxU7vjZUy4UCbABJhAiiPwXWJ08sx9LF5zymho/NRuo9HxgUyACTCBZEXgu8SISHh+9IXXJ784Q8mYwRGZXNNqPY5Du+OMkw9gAkyACSRpAt8tRvHRexaj+KDKZTIBJsAEzJcAi5H5jg23jAkwASaQYgiYnRiFhCrg3m42bOzTwMLCKsUMBHeUCTABJpCSCRgkRpNHt0LFcvkThNOlq48xeeZOFqMEoc2VMAEmwATMg4AeMYpAWIg/cmd3woKZPWFnax2vrSaraMjo1Xj+2gc2dmQZWcZrfVw4E2ACTIAJmAcBvWIUHhaM4MCvyJ8nIzp3aIjSJfOYXJRIhP67+Qwb/jyEx8+8YJ86Paxs7FmMzGOOcCuYABNgAvFOIFYxAiIRER6GUGEdhQb5QhEWKH5XiD9Him8iTdI4C1hAqA4sraxhbZMatqnSwlZYRZZWNqJ88R0nJsAEmAATSPYE9IgR6U6EEKBQhIUGQhEaJP2b/mYiLZL0htxxlla2sLZNBRvb1NK/2UWX7Oced5AJMAEmEE1ArxhRThKfyAiFZBVFiE+yjEyWJONHWEaW1pJ1ZCE+WYhMRpcLYgJMgAkkCQIGiZGyJ8IxpyZCphCkb244pbtOKUycmAATYAJMIGURiIMYpSww3FsmwASYABNIOAIsRgnHmmtiAkyACTABHQRYjHhqMAEmwASYQKITYDFK9CHgBjABJsAEmIAkRkNHjMZX7wAowjWDFBgQE2ACTIAJMIH4JyCJ0YIFs0FPQVCPlov/yrkGJsAEmAATYAJEQBKjjRuWifuHTBGqzVCZABNgAkyACcSdgCRGm/9cGfcj+QgmwASYABNgAiYiwGJkIpBcDBNgAkyACRhPgMXIeHZ8JBNgAkyACZiIAIuRiUByMUyACTABJmA8ARYj49nxkUyACTABJmAiAixGJgLJxTABJsAEmIDxBFiMjGfHRzIBJsAEmICJCLAYmQgkF8MEmAATYALGE2AxMp4dH8kEmEAcCYSEhCAsLAxp0qSJ45GcPbkTYDFK7iPM/WMCZkRgydKlqFG9OkqUKGFGreKmmAMBg8To+PHj+PHHH2FjY6PW5jdv3uDr168oXry4OfTFqDYsXrIEObJnh7u7u1HHazsoPso0WeOSYUH/nj+PlStXwsrKCqNHjUKhQoWSYS/Nr0s9evbEmtWr49SwwUOGYOGCBXE6hjOnDAIGidH27dvh6+uLHj16qFHp3acPZkyfjvTp0ydZWp8+fYKjoyPs7OxM1of4KNNkjTPjgnbu3IkaNWogY8aMcWolzcM5s2dL48hJN4G7d+/i48eP0oWlKVJcxejipUv47/p19BHjxYkJaBIwSIzooH79+2Pc2LHImjWrVAYJFKU2bdpIn97e3qDJljlTJhQtWjTaigoODoZCoVDzEfv7+0vfaxMAyv/gwQN88PREpYoVkS5duug20yLv5OQEOqny5csnlUn5/7txQ8pTulQp2Nvbq/WR/NM+Pj7IkHZdbaUAACAASURBVCGD2t+pvZSX2qbaFspP5dP35cqVi2431a1ahq5+WVtbq5Up56PKr169KvWnWLFioHxy0qxTLkOXX534aStLLkcXO2o/sX3x8iWqVqki9Y2OuXrtmlZ+qryJR6VKlSRm1KeLFy9KfVEdaypEFz/6TrM8Tb7zxRVzM2Gh5syZE87OzhIjua/2qVJJ46s5ZzzFPBkj5iVdFFlYWEQLGVntd8Q45hJlqVpKVB6VS314/vw5SpcurTYv5O9pXsiMNfuoa84ZMtb6GBg6x2gc5HNOs4/UIXmci4u5li1bNokjeTjevnuHVi1bwsHBIca+TWxjR2XKTIuJ89vNzQ2qYqR5fsjjrdqf2XPmoEXz5sibN68ac/6FCRABg8Xo1q1b+HPzZsyeNUtyzdECsHLFConiho0bcfnyZTRp0gRv377F2TNnsEAsLGQxnTx5Ulr8unXtGk187bp1yJ0rF2rVqqU2CnQCLVi4ULo6psVohxC8Tp06Sb9T6tqtG1zE3wsVLow2rVtLJxYtQk2bNpW+/+uvv6R2FSxQQK3cQYMHY9TIkdFCSl/S1fSSxYux6Y8/ottC/Roi3Ag/1asn1b9nzx60btUKtWvXBpUxberU6Kvv5cuX4979+1gq3HxyGjFiBKaL9qiWSf0//fffkiA2atQIz589k0R7mfCdkxi8E30YK9pcTfjRadE4eeIErIVQk9iqMpPr0GR97uxZzJ8/X/qa2kisqJyDBw+ibNmy6Cz4UaKFgy4kcuTIAWcxLnv27kWLFi1w6NAh1Bf9DRKL85EjR7BI8JctXeKdNm1aVKhQQSpj37596NK5M3YLLs2aNcOzp09x9949ye1Cgh4bP9XxK12mDFKJxZTaQH2kNp8V/dghLCOqy9XVVRLLa0Ik/7drl8QtKDAQZ0Se6b//jlRCmOR05OhRbBbzsn379tKfqC/Tpk1DsNgor1q1Ku6J9r148QLz5s6V2khz7/Xr1/D385OO0RQj+Xta6OvXry/1kcZL5vLw0SOdc07fWOtjEJc5tnnLFty9cwe169SR5tSDhw+lPpLQDhw0CCVLlpTmAfU/mxj3MmIu0FiTaFQRbEkQ8os5Jid9Y6fJlI67L+a/7KbTZiWp/o2Ebrg4P4gjJyagjYDBYkQH05VNSbHxeEFcFTcXixFtQtJkXyX8xqqTjIRr67Zt0kkbFzGiOmjSyntTT8VCQGWTAFJqIkRngVh45SsrTTchnVCTp0yJMeEPipPwpViQ+vbtK5VDeww3hTVFv6sKIwlZZ7HYymJGbRkwcKAkWsfEVSVdLTcVgkuJ6qYr0lZCrKg91FZyM40ePVqtTOo/LbqqorVCiLiLiwtaC0GlOn9p21ZtQ3fmzJlwFa4qTTHSxlq+IqVySJTJmpTTSLF/QmJUpEgRSYyob1V++EH6mto7ZOhQbNywIVp8/hJiQ+XJ9RJvuuCQrWHqC4nhurVro8eINqSLiIsDEuzY+NGYapan2R8au187dIgeX1oASTALi/JjS6qLHo01WbYjxcInJ+rXW2EpyeNNYjR50iStRdJ8eCgWdnnOUaajQvD+++8/aWxjm3P6xlqew6pMVRlQ2w2ZY3TRt2XrVuniSLWPZP2QiNM5Q6KtmbSdi3IefXNfG9MDBw4YLEZ0ztFFQft27WIdS/4y5RKIkxj5iatJcteRm0k+2cld5x8QEGPh7NylCzasXx9nMbojrvaOHjuG4KAgye3yXExg+eqLrtRpIaTk5eWFocOGobDGZvVNIYRkUakmVVGhRXGoWIQnTJggLcKqYtTh119jlPfo8WNMFHlpH2O8+CTRlU8sEqHr4uqdFjmylMgXTwu/apm0ADwTV66q+22nTp2S+kWLvrsQ9b3C0lBNuhYNXazp2NbCXarZb1qESaBJkGjBXr5smVoQiubVLNV79ty56IValbcsYH/8+afaQk59pUR9iY0fsdIsj45TbYOmGJEVMkmIBrmayMohS0+b61K1DLpgKissLxJHOdG8HSEsYxIBaq+bsBjqCQtKW9L1PdXxuxDH2OacvrGm+mJjQO00ZI7dvn1bmoOZovbW6DwJEJajra0tJk2cKFmGnuL8KCXcmnTxIbspYxOj2MZuqxC+ypUrx2BKLAy1jGhse4o9Z/nCJuUuudxzXQTiJEZUCE2qamJhkE92WvC8hN9edbGlxZ9OXl1itGbNGunqV9NNR1eGV65cwXAxyeVFR3WhUf23vMBMmTw5Rt8yiX0rzURuDdrjIPcguZvoKpeSqnDQQkHWnGYilx2JGFksHTt2BFkDY8eMkVx2cnQQXTHLbktNMdJ0U6qKEfVp/rx5apvv1Fbaf9C0jLSxltv6q2iXqsUi94189mTN6XOjUH5NMdI8hqyp2MRIHz99bdAUI7lvtC90Xiy+u3bvliwWzQVNtVwamwL586uJjaqFTWNDFq2qWKmON32fRuynyHuh9B3N5779+knjRKKma85pW+xVx1pTfOV6VdtvyByjefBRiE3jxo2lIkiMKJEYyXusZCU9efIEZL3YiuAcuniMTYxiG7uVq1ZpZTpTjIUuMZKZ0ffsomMBMoTAd4sRicJA4cqaI65I5c1KOqFDxGJKFgO5IZaLK1Jyr9GCTje99erdGx2FFaIpRuQCImtFdoXR1d8G4UbSNeFp8aosNtXlq1xawF++ehVjz4hAUDvJJ08LFbk5yILRFCNqd0R4eLSw0klEJ7TsJqK9g3PCcqD9BNlFQsJBiyUJoOyCiIsY0QJB+zu//fabJMDkAvXw8MAP4opWU4y0sSYXEu2z0D6OatvJIuo/YIAkkCSa+oTAFGKkj5++NtAVPY2NfA/Khw8fkDlz5uh5vHDRIimIQd5D1LaYk/DMEXsntI8lB7PQPClfvjwaNWwoXXzoEyMSEHKryntndPFkKcLGaTxim3OmECND5pi2eUD7N/nF3I6MjFQL2FHd3/3nn39wS1hVA4R3Q06fP3+WXMaxjR2dw3S7gipTGis61+Rzk9x8DcQeW3Wx90lpt7hwOCz2IOl7usikPTpVgTdkceI8KYvAd4sR4aITYZa4SgqPiJDo0aYwTXh574fcS/v274elpaW0MBYQAQYlxL1JmmJEJ85oYXGQSyxciELePHmkzWNdYkTiM0lYRhTlQ2VTfSOGD9e5x0BXzbRfoLofoCocJD6UhzbOqTzpSrZ79+gTjH4n9yNZgfLeC7kLu4vfPcSCJYckx0WMqMzLwhrcIkSNwufpij2DWBzeiEAQbQEM2lgPFUEXmm3XZKFPCEwhRvr46WvDzZs3pX1JitSiQAQKUCGxpcWSFuDs4n6w8ePGqUUiSmOkcb/LGRFAQ/sm8hhSIILqhYI+MUovLGgKOqGLjggxp8k9KM/n2OacKcTI0DmmOQ8oWIEsNppDdE4QL7IgKUBmiLgIKyNclzQ+dIFC1hMFsYwSe4rNRHQbuZ6zZMkS69zXZNpbXFCqXijK526gcBdS+lkEnZwQF1p07pJQyZ6ElLW8cm/jQiDOYhSXwjmvfgKqARtybtp/yinciXQlzylhCeiznBK2NUm/NhLF6TNmaHV/J/3ecQ9MSYDFyJQ0jSiL7v2g8GU5nF0zFNmIIvmQ7yDAYvQd8LQcqu1+PNPWwKUlFwIsRmYwkvJNlHQvkrYbGM2giSmmCY/FHqFD6tQc9ZViRpw7ai4EWIzMZSS4HUyACTCBFEyAxSgFDz53nQkwASZgLgRYjMxlJLgdTIAJMIEUTIDFKAUPPnedCTABJmAuBFiMzGUkuB1MgAkwgRRMgMUoBQ8+d50JMAEmYC4EWIzMZSS4HUyACTCBFEyAxSgFDz53nQkwASZgLgRYjMxlJLgdTIAJMIEUTIDFKAUPPnedCTABJmAuBFiMzGUkuB1MgAkwgRRMgMUoBQ8+d50JMAEmYC4EjBaj8PAIhISGQaFQvsMorsna2hJ2tjawslK+N4gTE2ACTIAJpFwCcRYjepNkWJgCwSEKk1Czt7MWL8Wzjn51skkK5UKYABNgAkwgSRGIsxjRy+BCw8LFm1gjTdJRKysL2NpYRb8V1iSFciFMgAkwASaQpAjESYzoFcwBAQGIhHWcOknv6Rk0aADq12+Atm1/iXGsBRRwcHCIfk10nArnzEyACTABJpDkCcRJjBQKBb58+QL7VI4Gd5yEqHnzprhz57Z0zKJFS2MIUnCQH5ydnWFtHTeRM7gRnJEJMAEmwATMmkCcxCg0NBSenp5wSpchTp0aOLAftm/fFn2MpiD5eH9CpkyZYGtrG6dyOTMTYAJMgAkkDwJxFqP3798jvXNGvb2XLaIePXpJlpCqIKVNmxaPHz+PLuPrFy9kyZKFxUgvVc7ABJgAE0ieBOIsRu/evYOzS6ZYaehyzW3btlXsHfWP4ar78tkTWbNmZTFKnnOMe8UEmAAT0EvA5GKkKURyC6ZNmw6ykl69eoUcOXKoNYzFSO84cQYmwASYQLImYHIx6tTpVxw5ckgrtN27/0KVKlVjfMdilKznGHeOCTABJqCXgEnFSDNQQbV2bVF08vcsRnrHiTMwASbABJI1AZOJEbnfateuAV9f3xjAYhMiysxilKznGHeOCTABJqCXgEnEiPaJnJycpHuJmjVroiZIw4ePxIgRo2JtCIuR3nHiDEyACTCBZE3AJGKUP39u7NmzD8WKFVcTpDZt2mLx4mV6AbIY6UXEGZgAE2ACyZrAd4vRv/+ek56wQJYRBSjIgrR9+1ZMnTrdIHgsRgZh4kxMgAkwgWRL4LvFaM6cWZg7d7YESFWQ4kKMxSgutDgvE2ACTCD5EfhuMaI9ovPn/5XI1K/fUHraQoMGDeNEisUoTrg4MxNgAkwg2RGIsxjR44CcnNLD0srGJDAiwsPg4/OVHwdkEppcCBNgAkwgaRKIsxjRg1K/fPVG7tz5TNLj58+fwDl9On5QqklociFMgAkwgaRJIE5iJL9C4tmzZ4iIiETBQoXFS/HsjOp5WFgIHj64L95hZIE8efLwKySMosgHMQEmwASSB4E4iZH8cj1y1dFNrp8/f0ZgYCAixKvI6XXkhiQLCwtYip/UqVPDxcVFek4dPbGbX65nCD3OwwSYABNIngTiJEaEgF477ufnh0+fPkkv2qN/k8VkmBQBFqIMeomeo6OjZA1lyJBB+reNjWn2oJLnMHGvmAATYALJm0CcxYgsIBKf4OBgBAUFISQkRLjsIiRK+qwjsoooWVlZSa+LIOvIzs5OEif5u+SNm3vHBJgAE2AC2gjEWYzkQkiA6IcESJ8IaVYsueosLSUBok9OTIAJMAEmkLIJGC1GKRsb954JMAEmwARMSYDFyJQ0uSwmwASYABMwigCLkVHY+CAmwASYABMwJQEWI1PS5LKYABNgAkzAKAIsRkZh44OYABNgAkzAlARYjExJk8tiAkyACTABowiwGBmFjQ9iAkyACTABUxJgMTIlTS6LCTABJsAEjCKgV4zCw8MREBhqVOHJ5aBTp47xzblJZDDpRuxWrVolkdYmz2YGiyez0FNWODGBuBCIVYwkIQoIEA+US9nPjTt8eL/02CJ+WkRcplbC5yUhosdTdejQIeEr5xqjCXwWz62kBx+zIPGkiAuBWMUoNDQU7969g7NLpriUmezy7tixhV9xkQRGVX7FSZ8+fZJAa5NvEx8/eoSsWbNKz5/kxAQMJRCrGNGDUJ8+fYocOfMaWl6yzLdp0zpkzpyZTy4zH126ePrw4QOGDBli5i1N3s377/p15M2bF6lSpUreHeXemZSAXjF6/PgxcuXOb9JKk1phGzeu5deiJ4FBIzGid20NHTo0CbQ2+Tbx2tWryJ8/P4tR8h3ieOkZi5EBWFmMDIBkBllYjMxgEEQTWIzMYxySWitYjAwYMW1ipAh4jwc378MrGEiboxQK53KGg7UBhZksiwLvbpzBlyy1UCwJbOldWj4B75pMRTM3AeDmWgzwALov6YaSJuMBxCpGod54/O9RnHnmD2QshvrVSiNbuqg9jXszUK0XsOrsGBQxYXviUtSzU2vxIlc31MqjedRXXNt1CqjVAmXT03fH0D9fX2D5Eyz9SVcN9zCj2hwUPLsezXU2wpA8cenBt7wsRsZxS+lHsRgZMAPUxUiBZ3snYfqBMJRpUB+F0gfh/Y1zOHPbCe2Wj0aN73GTfzqP9fuBxl1+QAZ97fI5isl9N+Bl+SFYM7gCElQH9bVNy/dnZw3Eq7aL0T6n+NLnMc7fBYr+kB9ORpSl6xBdYhR6dSZ+bLQAwY0GoF+VLPB7chRb/zgB1+kvcaCjoxDHMSggosF3PpphUnGMS9c2N7HG9jYK7GuvedRNjFE2DjMk5fbCxe2ngZptUCmjrhromAko9mgfYhQXfYgheeLSAxYj42jxUTIBFiMD5oKaGAUcx2/976L+msGooKoA4u23CvHG2u8ShZebMXAeMGxxe9CaHVt6tK4ftmXvDrddW+A0ZQ5amLl1pCZGBjA3Jot2MfqKVbXz4e8B77HVXTW6K1RYUrYiKEXUlKTEyBAyhgiNIXkMqStmHraMjOOW0o8yUoxOYHimuSgwtQgmTNgoMSw39QoO9pR9DPR9G/wRRffXLZ8xt/YzrG5UHn81/Zbv5HAXzC/w7ffnq+uj0qPh8JxbJ97GJVMmFyxatBRt2/6iVse2bVsxaFB/eHp+jlG3mhi92Y4hU3zRY02PWFw6Pri1eSGWnXiBSBsbhIVZIFedfhjcvoTSEiDR2ZYOHRyPY8UVP5TvvRZN3k3Abwdewi8QSO1oD6tMDTBxajOQVytGCjiLWcOuoebSwSh4cjLGvm2HZV0LRGdTPNuL3+fsx6twK1ghHOFWudFy3Hg0oMJ8bmHzwmU48SISNjb0XQ7U6jMY7UtQy4Tr7/QSzP7zDgLFTYvh4vgcDYdgdIsCsFNpd3e3S1hx6oM4Nky8ft4JlfpPQd8Kso0TVcamW/ATfReZpDKqPlmKD7JlpCG6JFTPazTD521/4k6guFlSvNLeOm9zjBrnjjyyuis+48b2pVgRxVTZtpbI8c9fsB2mtLi0i9E9TCxaGx+Xv8eKGjqmlSRGH9GnxSMsXPsEYdbB8PfPhJab/sE6d9n8CMXD9b/CfdhxfLa3l9roUnce9v7RBQVtz2Ngngkoeu0kekmuNErib9kb4OOSjyoiGIq9v+QVFtBTDWEEDLeMYlpKJ8b8gs6r/kOEaJdC4YSfly2A87jlKB1tGXnB0Dzd1t4W/beOKuc4VrZygyThxGhCRiwvugfddDJS9pzFKN6Wr2Rd8HeIkRCbX7crheP5SjSq9AhDPeejNjRER+W7PGpioxS0+7+6Y+nc3sgtMJM4HW5AwhV/zAcO7Ift27dhw4Y/0KBBQ6miw4cPoXPnX9GmTVssXrwsdjGCD87OGoaNn8ugWcfGqJY/O9JKK/W39HL7EEx90UQIRk240GIqFtLT80Zhn9tYzGmfB9a0GE88i2zNx2Fw0+zKhV5e7A2wjDx3jcAknx5YSQKkuIyFPY6g6NKJqOtAhbzB9iGLgOEz0CabciVXfP6MABcXIYQvxXdT8aLJLAyr6SJZcYrPp7Fxlx3ce/4A+/NzMfpEcYwZWw9ZVdp9tODvmOkuTC9q9+gTyNDhd4xtlFV5/LPNGDHhKRquVtYfIMoYtDMjRs7siAJSx0LwaNN4TDkcgoYzo9x0McToFyz/UANjJveGpIkS48HY7DpG2UchkvfW9MecL20wV2YqlTsakw6G4+fZsYmRcGxtboLiQ9+g0eh5GNahIoq6plYfMFpoyy5HtjmXcXRIQWnxDb06BqWrX8bAt0qB+bqjBQpNyY29V+aisnR4IC4MLw/3R2NxW/jW/KaWRnfnUzjdT6lGoXt/Qd5xt2CTeSCunewF6a+he/FL6VMYcHcxflBvgSRGG2o9hUczjS/wALNqDYDTbtlNpy5GNycWxU83huPa/7rATWr4G6xvWRa9j1bEuhClm86wPKXQ6eNcHFtRB5L8Bl7A8PLu8Jz9Gn80EgUTowqrkX3meRzWwUhuOYuR5hjy74YQ+A4xEpbRxSPoSSqCKEuJfoeqMNF3SnF6NFSIDIYi0/wCuHhQiM9J8e/DDXGxwCEcrztflKNShlRm/CUSpCNHDmP37r+kSpo3b4r69RtoFSL6PmYAQwheXz2AYwfO4/yzj4hwLYI6rTqiTSVaoK9jSad9KLB8MupJ4hCVAmiP5xGabByAMrQYTwtEb03ryhA3neIe1gz6H3LNlsUHeLSuN9Y4TcEcyVdHYjQNH1r8ht5VM34TOmrG9SXotK8Alk+uB9WmKVv4CXtH/4aAPlGCodru8d7ovqAN3Kh9c8IxeGlHfNtnV+D09D544r4GPYpQGWPwsSP9W3X8RJt7rETq8brEqA3OVtiMsTVVnJzPNqH/pkyYJbX1POb+cgzFPTSYQr3c2AIYAu/sx/xVC7Bj+1W8UORC9V4TMW9KS2HViHbSQts8DFuezkW56GaHYn2DnLg8miyqV5hZviJeztW0rv5BnyzDkfPSFYwOm4rSbW3w15XRyAGygErj1IAtcOgxFLnORQnaqtqo+mI+7io3f9QSidFor2aolF3zGx/cPfYCTc9oE6OD+NVpLiq9OI0oDVQe/HUZaroeRXcFiZGBeVxWof57kV/Vk/lPH2RfXBOvd7U2gNG3drMYxRhe/oMBBEwvRs+EyLRTuu5Uk9JVR4JzCA2EBQXZChIC1ehpfxysewyN+gNLSagMaPj3ZPHx8UGzZk3w5s1rqRg3t+zYs2cfnJy0b6fHHtqtQMDzf7BizlagwyIM/+E6ZnW7iwZrxVW+WiNfYvPAjcg4S4iIl469IQPEKOD4b+h7pRJm9SgtXHBRKeBvzJ/yAa3WCKET67ninbB2Vh/A+ZdfgDSZUfTHNujUtBRcLsxCt7sNsLa3esuUpVD7xuJEsANiPvypFLqt7ouKOtp3dlYbnP9hO0ZVozLWIN3UaWikgVJtzyiGZSQfrwJMLY9wS+pkKpmSsbjpYs6UUO//sLFbM4zHbDwQC216HXtG31xnZI30Q8Zz5zBEI2hgc5PsuDjqNZZU+YplNWvhi8d/mOC8CrV/8sLqKxMAYTG1tfkLV0Y7ir2rn+C1+gomaLmH3Dg33WY0cT2NgR89oO7YVt0PMjCPXR9cdEkTc88z7wCcoChDvYxYjL5nTeJjxVPnmjfvGLn5z5VaWdATGLTf9Kppxaj8LokRsEVy2cVMSlfcdqCdUpRqS1aV+PcWYD6JUvS+U/wOjyxIVEtsQkTfG3Kfkc/B8Zjg3QOL2382zDLS5o7TK0a02M/A3VwFYkTbBb6+jYiGSzFR6auLThSC/s/SsfjLbTIWF96nxzIajy9dV0Jl+0l9EPSKkfGWkVLMdInRI6zrvRR2YzSsNooo7H0Q+aPcf3G6z8hrAapW9cIyiqDTu9AaYBnlEAZJlOVzzm0wan3xwH+kOl+jhGkb0LK7M06d7qd02Wkk48TIQKvHEOvJZb7Y11Pd89JooF5GLEbxu2Il/9JNL0a5YwYqPF89NMoVJ7aXxL5Rf+Edu1r4W6CCFMhwvzwKDz0Sr/tFxg6nmhg9+h8WXMmF9i3LIaO82aN4h10TRuBurdWSGOjcM8o1AQvaiJ12XaJDwREzQzBAcoOJ6DyFiM5T8VwpLi9EjyNFsXRi3ZhuNipzRgj6r2yE4KuByFsqd9R9Twq83T4GsxT9hVBC756R+n6PAp9vHMWttPVQkyIJ9IqRsXtG+iwjsYt0di5G/hmCnwZ0RPVMIoBABGJsXLQVd31To85vsVlG5/Fbm/0oNXMCmuSW94pEMMK0qih9uhve0n6OAQutzj2j55OU1hVNLmlPaB0CUgeg0TF5YadovrI46OCCgEbHcPJbhIPadDROjAzdDzJiX0nsid1ZswpPmg6BFMNhACO5Q+ymM3alSdnHxYMYEVD1aDqU+125T0RfSQEN41BYcttFwaf9o1isqcQeIjUxoqiuv9bgjwMP8UVEi5FLS4rsqtXnW7Sc2IDXG02nNVBBbNzPHYY1dy1hb+mIamPm4dd8cu99cHTyYNxvuAaD1WLK5e8DcPy3/rhb9zeUvLgQm259EdFyFM0WDqsctdBncHtlcIBaNF0YwixyoU6/b9F0ny+sxnSPa/AW0XRWYWGwyFUH/eRjDRCj6Ig81Wg6wabcGw9464ym0y9G1MuQ1+fwv/0ncP2GHxxL/QD3NqVxd8pCPW66ULw5Mgu9Ry7A+Tf2oEA4ofKwKd4Na7fOQB2DF9rYounkMaC9Ile0CVgOPxHUIG+/UDCDaydhYX/cCrXocpWJbawY0X1HmpFyNWdNRfYZm2KNpouZRwRkTG2MtkuiounUogVZjBJ7DUoJ9RspRikBzbc+GuKmS1lEEqG32u7jUoi9pE6XUG3zcCk6LU5uukToQkqpki2jlDLSpu0ni5EBPFmMDIAUz1mebx2Gmf/lRRMRTl9BctM9xP71G3C7SFS4PItRPI+A4cWzGBnOinN+I8BiZMBsYDEyAFK8Z6GoxRs4cuoMXvpQZU4o2NAd9Qop75eixJZRvA+CQRWwGBmEiTNpEGAxMmBKsBgZAMkMsrAYmcEgiCawGJnHOCS1VrAYGTBiLEYGQDKDLCxGZjAILEbmMQhJsBUsRgYMGouRAZDMIAuLkRkMAouReQxCEmyFXjGi145fuHhRev14sLgJNiUlaxEa7egoXjEgkp+fHxQi1JmT+RLg8UrcsbEXrxmn141XrlSJXzueuEORJGuPVYzoSvPdu3e4e++e9Em/R0ZGJsmOxrXRFhYWsLK0hJ2duLNV/DskJETcshOeYvofV16JnV8aL3FvlDReYo5K4xURweOVQAND/G3F+ziyZs2KokWKSJ/0OycmYCiBWMWIFt+AgAB8+fJF+qTfU1KiE4x+KEWIhY2T+ROwFBcQlOiiKaVcOJnLqNDFgIODA5ydxVuPxSf9zokJGEog6imOWgAAIABJREFUVjGiQkiA6EdejFPKCS6LkNxfzd8NBcz5EoYAj1fCcNZVi8yfLgZIhFiIEnc8kmLtesUoKXaK28wEmAATYAJJiwCLUdIaL24tE2ACTCBZEmAxSpbDyp1iAkyACSQtAixGSWu8uLVMgAkwgWRJgMUoWQ4rd4oJMAEmkLQIsBglrfHi1jIBJsAEkiUBFqNkOazcKSbABJhA0iLAYpS0xotbywSYABNIlgRYjJLlsHKnmAATYAJJiwCLUdIaL24tE2ACTCBZEmAxSpbDyp1iAkyACSQtAixGSWu8uLVMgAkwgWRJgMUoWQ4rd4oJMAEmkLQIsBglrfHi1jIBJsAEkiUBFqNkOazcKSbABJhA0iLAYpS0xotbywSYABNIlgSMFiOLR4+SJRDuFBNgAkyACSQcgcgCBaTK4kWMLOztYe3qCss0aUQNytd2c2ICTIAJMAEmgMhIRPj7Q/HxIyKDgxFvYkRCZJs7N4sQzzkmwASYABPQTUCIUujz54jIkSN+LCOb7Nlh6ejIQ8AEmAATYAJMIFYCEX5+CE2VKn7EyK5IEcbPBJgAE2ACTEA/AWEdBYeHsxjpJ8U5mAATYAJMID4JBCsULEbxCZjLZgJMQD+Br6vrovKLeXgwvYT+zPpyXBiEnLMq4vHedrDVl5e/NxsCLEZmMxTcECaQUgl8xcq69eC18jIm5gVCvd/ivY8CqV1zwjW1JpNAfHz5EYHWTsiSLZ1WsTk/qDgW1byG7e5CikK98fa9DxSpXZEzZmFS4YEfX+JjqI7yDDg+PkZNalOgNZyyZEO671XUqD7YauUZ1fpE6qcqu0QTo11d3bD0NZCjzxtsbG7C4dzdFZlWiIKz94HnOlMWbMI2clFMIIUR8NrijiILy+HsufEorLm4fl2O6rW/YNVWN0xsPhqnfDKjWEHgwc03cGjqgYtr3ZERXjg+th26rLsDm1xF4fLlLh4HF8ToPccxpqxqgf+gV6FVqH91Er72aI4Rp32Quago7OFNvHFoig1n16JZxij4XifQv1Fb/PEpH/I7vcDjLwXRe91OzKojMoQ+xLpOuo7fjU5uA3FEZQwV/p/hU/R3PPt3KJQxYTpS6DWMKvszXkx9KsQyhtLC68RYtO6xDrdtcqGY8xfceRKMQiP24PSosjGEN1amUvWheLi8FX6c+C+c8+VD4JMnsKg7F4c3dkZBGZnUzyYYcjwVStUuiFQvL+O/XLPwdFtriBty1NOtschbcTm8XdLAOuobhXCtZW60FEdXtISbVOYW/JxqIarcuYwx4sIiZvLC0lo5saDSJTzVsIITTYz+FFct894C2YaE4kA7E56ZYtJbLJAKRqQw0zkxASaQuARCr41FiZ/vYfzNveggC4FKk74ur4XafquxL+8BHCrcEz2Lyos0LVx5cKT7Fxxwv47Vq73RsG/9qEVPLLX/9EWuXulw+MF0lJTLE3/Lu7YR7k8PwtIjhdG7e1FElybqyX6sO/wk991TzKhQFf/2vYLdnd2khT70jQcal96CxndPoWfo//Qcr9IBL7EAl5yBUkdvY1qsXkYv/OleEtOKHMCt6SriEvoG5/71QZmauXHTYzW86/dFA+XKTp1Er/y9kG7/A8xSKVsX08C7p3HdqQqqiuNDD3ZE1tGZsP/SHFSWIATiwuAyaBG6Ci+W1xB9pvZUw9qf9uFo34L6XZokRq2B3aq86SKhR3W0CpkHr02NRBkkRt1wvPI8vD7VV1xEqCepTS13wmkIi1HinpVcOxNIaQTIEqjYHfC4hFlqFowM4pUQhZbA/8SVtBaT4ubYQmhjswcPphTWQo4Wvj34NWgn2kR9e6BjTmxt8xKbG2nJTotpexvsvz0FRYRoZRySFReuj4fqBfzTaWXwU+CGGFftUmmqx0cXfwvji9fDjTE3xUW1FqVV0yx3VNrRGheFGKrlPNYN6Zr6YpVKP1Rb/6d7KuxqH4Q9raL+qpPpK8ytUhAeda4LXpklIT870FPprpRT6F60ybYBjd+KC4Nrg5C1nyvOajDQOUW1ipHITZZtsTv47e1y/EhiVOgcihY6gkftr4k2p1epWwhrkSlAzXc44brDfC2j0GuzULXFKryLzISe20+it/80uHdchqtfQxAuwv4iYQV759qYfXoX+ks25i2MKjQEVwKf47aPJ74qhH+1zXp8rrNJ3TISllLera/hffcNgjx9EaKIQKSFFWxzNsPo+q+xbMM1fA1RICLSAla2OdH+j7PY4B77pEpp6wn3lwkYR0B55b2t9Vlpof56fRdOohZallFZoJ5OQ4kezvhHXEWr/DWquqf4rUwteC17iaWVY7YglBb1ZT/i+fGeymNpoS1xDH0e0KIYM5HQVPu4DO8WVcarWRVQ/dMKvJhTVj0jidTsCnhzsHMMS0H1eOVBobg6tixafpiOKysbwzWWvR2yZMoKTV5/aTrK2T7DyXUvkLtrLeTRB1YSj2Wo+eg4ekudNICpVOZBtE+/HLU9D6KrWru+CpGqgGdzHmPwiSgGU5xx6sBpPPMHMpZpjvqltO/FSWIcwzLSJkZ38PsZNwz4QQjUPTEWUfU/nVUF7oEr8GdYazSHmYrRjjwjUKrxbvha5sH4MwclsfE6sQ/n/RVw/vFnVBc7eF4bGiH37y8Qmb4jHlweJfyyJEbVsOxDOFJVm4TT20egGJmimm468bt197OIsMiOwSfPY34lazGByuCHBU+gENOtcP9juDKnEqzFZCle9wD8rYph6dstaPa9m4b6Jhl/zwSSNQHlQt0hbANuiQWfTieycjQXoafTKqB7xqM43VNTioT7p289DE3ngWuqLq0oZqEPl6Nek2Podvab64/EqcTpAXggxEYzeZ3oi9oj0kWJgfa2SMfoWHA1j1eW/wrbhozAzscvcf7iO1RdfBU7tVlH5MartBnNLwphkK5zxe+2O9BWCE2H2OaA2M9Z2qgJjnRRirksfvqYKovUXQdtkWxrHYrf74jxuFcFmV+LtndshfyOfrixcR52ZZyJmzs1rDedbJSuvwZfVNx0hYQYCVceJpUW/duI21OEf9FrA+rVFtbvteVIPznmPKDiE33PKEP1tri74QxCbEpgztX/oavsK40xSGSSL8Y7ZMcoyZwlMaqLo0HWqLjpLVbViDpAixhZzBUBDVkGIES+2iGzMtMqfIAbRvvLVw50xVAJe/0tUNZD3T+brNcM7hwTiAcCtLleYKwz1p6YhHI2ygruz66D3liKf0YWi4oSE5ZPhd7IeFS+6pcb4oU9HathGGbh4iYKXlBP5EWp1m4f3LecVgleCMWedmVxcsDtGFaU196OqDQKmHd2U3Twgk7LSOxppFlTH/4q+83ajo+BjBbbopvRLNqCicohBSzUwdn2x7H1F9eoP+5F1/yH8PPj1WiuK8pPHDejZjvsbbIFZ6OCFwxjKrdMl2VEbtGf4C3WuH6HKyDnTFesfSiLJB3rhfnVSuPhNJU1VS5SWwCDeKaciwiK2B8dFEFuOqUYlaT9LuGWK37+CHINL461jS9KbjttFyWJLkZjLwHvgtLCIiQMrmmy49cj16P9yoEXp6FeuwW4/D4wyk0nXHURVsJZ9xPWS1cUJEbu+DvUFj/uVREPbWIUI6CBrhoW4C2yYZjK1cmf7oWwzQ8ouoDFKB7WJy4yBRH4d24bzL+i3mGfu8dwERXFol0YreYsQFvvsSg0LBcuyG42KbsxQiQOCxXndJFLGPtkEX5QqVankIh7kbTtl5wflBO9XU/h1njlTpJBQiTlpPVI+LB2aKwdr3Zg4IhdYq1RTa9wYc87ZGtWCTnKD8Ku4aotpr7EFCI62iCm0ftuFC5fAKf7vVXfM/q6GjUL/I2B5P25IFySIgDkuFpAAvB332yYW/VtzMAyEqMWPlh2YiSkHTyt4fUqYiSyfN3ZCmUXvoOtXXuciQpoMEsxEtYnLLKPwdHR9+De+xrCbapi29tNQihoYNvivMIedY9el+49UJqdqgLCYpSC1jbuajIgoLkInR+UD9Mr3hOLnuwTF/shrcphlus6nFxeR4tFNAllm51Hr+NKV75q0nbTrNeWVig5xxWbji5H3RjbwBSpVxQ7GvyNIyOUEXeBF0egTLMXmHJPeF6E11Dn8bfmo/O2Ipg2+Vtkn/JYT8x9SeuXvsHScKFFR9OJdgghGl+xGf7tcdygCDdNpmrRdFK0YZiwTpcpo/NEPetal8fskkdFgAOF5lFEYT3cHHce25pGAZIiA5fhx0v/YrhmQImuPSO17qqLEV1crGzaFJ5TL2BSVDSgWYrRt9Bu8i+XQZ3dfrAqNAP39xbDPDUxCsUbj6Yo2PcWwlEeHmwZ6Zvt/D0TMDsC6ovQBfQvvgS1r33bn703qTiKzniOtBnTwV619Xn64/SZvBiXqj322znDJY18l4syU/3Ft1F5xbebZqU/3p+EQiLc+nnajEinXhgGHT+DsXRpTxZIw2aYeSMC9vbBCHaoiwX7NqIrCV1sxx/agtLbOqPH6hsIotfkKPzhb1sOo3bsw8RKMe8dijkQGmKkEk2HVqnQ9oAdnFXu5ZGO/2mx1vsm1ZmqRtMpow+99nZD1e5/4bNoJ4ItUajnOuyZriL04l6rUe16wONOGKytFSKLyr1Wmg03Soxi9t7MxUjCJiJvSmDkg3A4Nj+Ck7U2oaGIjnsYpFBGv4knutr5pheOtcIYyWJkdgsNN4gJxImAcJMVWlITt4RbXa8hoa9gcj3V84LHZfUwbX2H8ffmRSDRAhjMCwO3hgkwgYQkQI/8+QhXZPvuZ92IVgd+xMsAB52P+0nIfnFdxhNgMTKeHR/JBJgAE2ACJiLAYmQikFwME2ACTIAJGE+Axch4dnwkE2ACTIAJmIgAi5GJQHIxTIAJMAEmYDwBFiPj2fGRTIAJMAEmYCICLEYmAsnFMAEmwASYgPEEWIyMZ8dHMgEmwASYgIkIsBiZCCQXwwSYABNgAsYTYDEynh0fyQSYABNgAiYiwGJkIpBcDBNgAkyACRhPgMXIeHZ8JBNgAkyACZiIAIuRiUByMUyACTABJmA8ARYj49nxkfFC4AOOzDuGzMM6olS8lE+FmqoOX5xZMR9vfhyHdoWjXmcao82mqiveYCgL/nAMs49lwsiOJaVfb2yahw8/DUP9zPFcLxdvWgKPdmHCUWcMGVATzqYtOd5LS3AxerikBX7d7Y+09pZRnYtARIQzqo5YiAl1MkHXKW1aEq+xqt1gBE3ehcEFVEu+hmkN+uN5l6NY2zqtyhdhODCsIc7+fAizahrbwje4dMofhWsVgmrJpu1XQpYWX/15hIUtViHfrnn4Od66Y6o6NMVIGxNT1RVvMJQFP1qCJqvyYt+8htKvB4a1wJNemueH8W3wfXAK99PUQkU348sw3yPj61wwoscsRjGh2RUpopUkidEIzMC+ASoq8OUSJvcYj9DBhzC9mrGLfdwG7rVHO/QLmqzejmsz0GT2DYSka4Gdq1p/E42wQxjU8AJaHJ+K6nGrRiW3KKPFU/TdNQAFjS7DnA6Mr/4kxOIdX3VoYxJfdZl4LsSzGNF5vzzvLixSal0yS/F1LiQzTHq6kyiWUQwxEo303dELzZ/2xIkxZcVvwXiyZxYmb7qID8GAfc6GGD2lN6pmUgrVicnd8bJxD/itmYkDL0UGpEPpPjMwvUmuKMvqOdZ23wi38WVEeSvwn7fIYp8TP4+ejsEVo4zX1x5oPTgIU1XE4cyEn3Gw1hxkWToDaZdtQtcoF0XYoWGoe8Edf0+tprdtXy55YNLCXbhPdYp2FW7YC6OK/I3Oc8/B3zccqdPawxIVMfrwZNTROTii/0fXYNGGQ9HlqPdP80ANXpkqocuE8rjR/zJqRNVDzJ40aAvvFctwIld/wbC2wPwUu2ZNxfqLnoK4PXI1HI7fe1eBhDnME//tXIl5O5VjoMbvpGi73v58wUWPqZi76wGUKArh517DMPhH5aWxGif7TPihy2RMkMZPuXjnmlcD/+oau1iPV7LRXT59q0sgrmB2++OotGEsqsvXRGFnMbX1PhTfOAfu0Sbta2zqvxIZZ/8O69liLnbyQLdnupgY1h+1EdU5LoF4sG4kZob0w5o+hZVzPew+lvZZhnQTl6KDeE207n6HwfPfjZi2NGpupiuFPtMmoUXeqNegxipGeo4V86Hzq8bo7b8G0w69FHNJDHepPpj7WxPksqFzsS82P/VFoFVapBGNdmu9HBu65I45+8VF6aqpC7HzgXTCInOlLpg2lsqgfr7A3umT4SHNVZpOLTB8QndUijqdlfO7C4LXz1WuCfL5nv+xSpma68S3tUTxp1yvOGdbDMaU7hWj3FwnMaHB2ejzSG70ickN8E+1w5gKXeNuALNnDdDOewUWn8qFwTHWg9jOnzC82Dcd49dHnZvi3Go1eAJ60dr2fD06b8yBDXR+U4rtHIcB66TyZNI5LmGe/2LdzKVRYyb49pyGqc3yqr+pV+c6p/6FWYrRwxVt0PdJW2z8vRnc6G25tzzQY9IjdNg4G/XEgnBgWE3MfFwGQ5b/jhYiAwH5ve9kFcuKFoBe2Ju2KeYt7oeyjjZiTDahX+8TqLJOiEx2gqDpqjuLsT8fQZ09vyPbyhaY4rgMWzqTGilddOfdjwurDYi9bccxtO4BVPlzLlrQih7mhwfPPiNvQVpk43D1FHYN6xa+wg+9f0Yh0XYBALPaj0XkxAMYrXTpqyWpTbebYtmsVlJ+4jFryGjse14BEy8o3V1KZoXRe8F8dJAWoEdY2mYgHrf1wKxmbmLyBOOmRx+Me9QOW2bXRdovh7BwswNa9qghjUGY5x4M7nAcNXctR0tpUdbTn+Mj8eOBytg+t5kkbmF+D/H0cx4UEitL2NkJqD8HGLp8HBopBxjL+q+Gw4Sl6JxT/9hpHh/mdx3rBo7FPzXWiDHLHqN8ze91i5HYK5nTBlvL/RntjvXd3Re/rHsFB/cV2NFdmjjAzTlovqMctv9eE0fV3Fm6LCN9c1F1OPWMizxunbZIVsaBYd1wvPZa8W/nWLk2fzQSzTyyYraH8nwI8zyBSb3XIeusLehPTopYxMhXjGWsx4qLtapzHqPswOXKuSQuZM7N7IvxoYNxXFzAkZbotYyE6I9tLCbFoOWY2CBqPq7sjxWpJ2BlR0us69gDp6tPx/JOZeBoE4w3h39Hj0XAmP3CWyEqODCsCn57/COmrZmMn8SEU57v/4NnmjSoOWUdhpUQ64SYJ/M7j4KPigeGzou5z/LilwkL0LWMI2yC3+Dg730xX/hvjkhtF2Na+aS4GFV3Gx8YVllwvxBl6cUcd0OZFemxAIvbaVm8Yzl/Xm/oiM7/VMfsxZ2+jeWos/hp2RT8+FbV3ap/LuldJ2MbF/dHGNraA9mme2AgsRPjfuy33liTdRZ29lHb/zBIjsxDjKTFdljUJLmIsXX34odDYvBVPHbkVhtlPV8SCJp4x2v/LSbCtwxkWXXwHBbldqMFbQwwQ93nfXVGA/xR8nC0q0DVVRd2ehx+PlUfR8n6oRNzmiNWb+qMzGouOnHCxNa29teFO+8oqstipDYEcRAjLUNHJ/MY67nY3UfzipLatBVlokUi6mCy/FrfR8doMdJgJgThx73ihBJ7BN8okkCPg838b1ahalOI+6n6/2J+Xf1iJFmTR6tGi9G3cj6IhaUL3g06jPFkBMdI+sZOx/FftqBT+5cYcLgLbmkrP/r7MSin0zJSCk0jsXeydXlz4ab1xf/69sfnAe64Nvkthm1XulhVBUt9b0WXGOmfi9EYDBkXcaEwqNtJFKnxEUcxBtsHk5UUG1f6rh98x6ufDzHmvNY9IwOOFWNd4WRt/Ks6l3x3oFsXT4yM8jzoE6MPYoHt8H5QlGdEY1IIJlX/LI5Dqq5zcZF4cWoTrCm4Xdrf1bYm0Pk+OdV8HBB85KS+TpCIVcaeihp7xGFi26DJOhTavgpt0xojRkYyU+m27vNHnO81/0SJv6ht2k4fFTHSO5f0nWsiriWWcaHvevqNV9/qCDuNUc1OodGBuG9pJIoYaQYwhIWlRYWBc6LcbGLwqy3B61wZYKfKOtQfETWmYnvfYto3V8UJ0eRpLxUxirkJHuOEiHbV9cbbcc1wov4ByfpRWk3KRfnX66ouOn1tKwjPEwsxbNFRvA51RPbCP6B+t27oUJx8CXERIzLDJ2L4+mewSWMrUQj59AKKhmvVB176Rle56idRjA1pwavSkjfInUFZvpxC/CNQc+pmDCgm3ARLxmLm375IldpK+trv/RPkHar7alCtILpKWjgK84++QaijG4r88BN6dmuHEs769lC0f/9t7HQdfx/zmnmg4J5eeKI1AEL+nq5wY2uDGPuOM+CyVFiAPh5oN8MZK5c3xtVxHXC59XaMLiJOtg5X8cv2EVK0n2FiZMBclOHpHRdlxuCjw1FrOkTk1Fw0kDxtsfWJvuuLE6mzwFF1kMID8TVHV+ya2QgOOi0jA45VO/eiO6K2R6pPjGL9Xmv5wtreNwgtXvaTzgltARday9QoS1egxre/GyNGxjJTVSNd54+edUR1HPXOJX3nWuwWLfHteSo1sqZRm1QI8M6BHttmorGD2orw//bOAzyK6mvjb3olSCgiLdKbKNJUFCmCIF26SPuoUhUQg6EHCUWlSJNiAQJS/hQlSBEpShMEKRpAaaFLMIEAKZv23TvJhE3YZHeTTTLJvPM8eQjZmXvP+Z2Zeeece3eu2f/kihiNfjQay3onPeE7eBZBMVmKStkel8uapDOXweQJlBkxUkt1E4bh1vgj6LxRPjUnbTJrGo1p6HV2OE52D0p+ijdv22M/ohH+5yb4jtyIagvlE6kVYiRPqMlOmLfiPZRNZmBy4ofSmZwB+DmKLl2DQclVJOXP4gm/+Xu3MTwlM0ozO0o8NTXf0QRBotRkCrPyZLb/LeyY2TSl/muuNJHu2RYdjjObxmH4xqpYsrEzDpp4Sn98rLkLxPRTpxh0RL92Z9B771BcMNV+yufyiS1jQZRPfKMwCzPjPsJU7wVY2sELMovoeKQDNr68CV1/74JNY5LqpTYXIzNxUTo1yozW/zcguZyUDhflAPnZKMROS3OOGAcsXTGy4FgbiJHJp2zVPpNP+IDMfGY/801yteTJ2X+WidGTVZYkYf8kedxYZiKiUrPXuEwXgbWDmuNwu/QezDLLLJ0rKNX1UxMrTFRnUo40jqPZc8nctZaUGT2R/SR3Jj8bETftcfk63RuAZR/kihiZmsDw2NxYBM/vjUkPh2LBh8mD6XI8Y/MuOLVui2pKfdjEtNNMiVGS6PQPigRemoCdyuSJ5E3Jmn5CXExN+AWpImXGNpzFgaPeeOlVdYp6GAL7vYsrQ2RJSohR44Not2saUkRWThL4KwrP1VQnXiT3LWb1NV3kg/VfdU8aRBWD1HN79Mee174xkRnJe9NodP7SAUMCPkaryo6IOL8Vk6esRPD16vgwPTGSbfaeiodD58BXtVeUSzfuckLbtlURJSeUnO+L7RNeShIreQPsOhUYaXQBpvXH6JyLPXsQv3nXS5l0AqMyWTlh77trK2LG0vfwgvJUH4agT7+EU08/NC9u/gKR/qY6XnDcMrY3Vlb4QpQxKyk8Mvo84yxCmBOxCQOHHYRbjCvaBarxOoUZXb/GrafCUW38yhThf0KMnmBi3p9Ul6qZuDiJByg5fnJhwFaRxT9INWb0hN9GXOuKDL9XUG3Mnd0dFRTmYoB9dxD+qvU2msiTLIMxI9luhsdaKEYT3Oamf+OS51eftaj0yVIMFeM7Safcp1jo1BMTGoWL898XtwaICRLJX/+IPj0X3T+6iUHr1XHkzIuR//UW+GLxhOTJEOJeM7c3Bp3tqJQFvZVSbUfsbRaIuW8nXdfRpz9DFzHtveyE9K+FzDEzugume/18CPf5PTD69gAxSaFp8mSjs/g64ABqjRmAmteNynRmzyULzs2M4lJbDEv0C0Ldz9RxaDm2vBs/BNdCx8bWf8tJg2KUdHOSJaLJQZcRZ28vvofkiHKtx2PW8KQZLrYUI6FGYmxlC2p9mXZygCzVdcGGGgvS1LEzsE3MOpnr94mYOBAHYbayFW8yGV+MkXbH4vfZXTD6x2g4OXniTf8N+ChODDiOikgRjMenYhj2TBmKgJMuqOIDXL9RFHXKX8DRkjNNipE8LvriZsyd/z0OhADP1m+HD4a7YH7jxwOvJpmlsld838uxLNqOT55xKE7kr4f7Yc39p1Gz4AP8GVcTLyduQnhH9QI04U9dIw9+m4+PPgnCpTh7MXtQbk+j6eTZGKvMZkwqQ36w8AQePhFfCy6QDI9PutGm37783FypUN6A3sKXpb9IFXv5pP3usTYIkmOJya6m5mqKiSX+pJIjZfbS4/PIOC7u4kbZF584TMCa4epsOpEZd54Fz+mBkEMj6fudmom4qOBZayjmKjPeMhajtDyfONYCMcK1jRj83mKcT3CCfeV+WDu3E4qkcTv2yg/wG7MQxx+Kc0bY51i2NSYHDE8SibRMPGthxKf+aK8Yb/qeYFlm1BHnW/bG7eXJs25jY+Faoz9mzeqmPPgqW9heTBw0DfsjnIQYCbuq90O7+Dk41zyja8EM73RKjyqSsAyvn7T3IE/UHpo8zJHmoSL9c0l5AjH5nb603DKKS6rPBJuENHFJE+IM/5vjYmSNcfl/X1ECGHwRIxY/vrllymdxAcU6yQvFaJNlus+LYoXRjTNTbfMgEsjHBGz95d58jCrbXaMYZTviDDo4vwwTjrXA1B7Ggz3WG3Ru0TsYcagKOg3siDYVC+PuP9vwzWf/A4avFzPf8sf7HqynwiNIwDwBipF5Rjm1B8Uop0hnaz+xeHD+ML7ftQcnb0TDreTzaNqyAxqqX2jM1r7ZOAnkXQJ8B592Ykcx0k4saAkJkAAJ6JYAxUi3oafjJEACJKAdAhQj7cSClpAACZCAbglsdTigAAAgAElEQVTkUzE6hW8//xctRr+ZMgVXtxGm4yRAAiSQBwhoR4wizmH3OU80rWeLBU+seNuBhUG6fnQPHlRpgqqWTE4T3yGoI97V9Xvy2jAWdsHdSIAESEC3BLQjRmm/rJWlkNhejKyaAkoxylL0eDAJkID+COSwGJleo6Pt5ckYuPYiIiId4CUXPCnZBUuX/x/KwcxaIsqSHanX9kha+8gHG4aEGC1kl5X1kaQNn+GXhxGId/eCXKD2lQ/FOiZvZLDeCMVIf1cSPSYBEsgSgZwVowzW6Ej7bqwkr8y/MVdZy+dos5S1PaKvb4f/2Hk4FNVKvJQz6ZX/WV8fycTrRjLyRb7yXizPcIBluiydnDyYBEhAPwRyVIzSX6NDADdZpjMnRqbX9oj9bSremvUUFipiZGYNIovWR3pSjKz3RT8nFT0lARIgAWsJ5KgYyaWsTa9xk1kxSmdsKPYHDO0WghGKGJlbg8iS9ZFMZEZmfHl/Z3PME+uscCMBEiABEjBPIGfFyNieVGt0CNEwmRmZW0tELPPdYAea7Em9KizkEgwBno8zo+TlxDO/PlI6bwpX/Unri1huPDzaFYVSrdNkPhjcgwRIgAT0SiBHxSijNW7qKAvKuWHhmv54/NpQc2uJiFf2T38b4x5+gJXq2h5iTZ7P+w7FupguWKVkRrZYH0mKUWP82noXZjZOejd2hr4IcboV5YZnCiWty8KNBEiABEggYwI5KkYZr9FxDRuGv4cFfyfAyb4yBq6aiy5ywRNza4nIclnAMEz7NUKsEySmurn6oPXY13F51n9Gs+myuj6SEJ/js/G274+IFks1eDb1x9evHUl3vZ5LYlJFl32NsH7dYDEjkBsJkAAJkIA5AjkqRuaM4eckQAIkQAL6JEAx0mfc6TUJkAAJaIoAxUhT4aAxJEACJKBPAhQjfcadXpMACZCApghQjDQVDhpDAiRAAvokQDHSZ9zpNQmQAAloigDFSFPhoDEkQAIkoE8CFCN9xp1ekwAJkICmCFCMNBUOGkMCJEAC+iRAMdJn3Ok1CZAACWiKAMVIU+GgMSRAAiSgTwIUI33GnV6TAAmQgKYIUIw0FQ4aQwIkQAL6JEAx0mfc6TUJkAAJaIoAxUhT4aAxJEACJKBPAhQjfcadXpMACZCApghQjDQVDhpDAiRAAvokQDHSZ9zpNQmQAAloigDFSFPhoDEkQAIkoE8CFCN9xp1ekwAJkICmCFCMNBUOGkMCJEAC+iRAMdJn3Ok1CZAACWiKAMVIU+GgMSRAAiSgTwIUI33GnV6TAAmQgKYIUIw0FQ4aQwIkQAL6JEAx0mfc6TUJkAAJaIoAxUhT4aAxJEACJKBPAhQjfcadXpMACZCApghQjDQVDhpDAiRAAvokQDHSZ9zpNQmQAAloigDFSFPhoDEkQAIkoE8CFCN9xp1ekwAJkICmCFCMNBUOGkMCJEAC+iRAMdJn3Ok1CZAACWiKAMVIU+GgMSRAAiSgTwIUI33GnV6TAAmQgKYIUIw0FQ4aQwIkQAL6JEAx0mfc6TUJkAAJaIoAxUhT4aAxJEACJKBPAhQjfcadXpMACZCApghQjDQVDhpDAiRAAvokQDHSZ9zpNQmQAAloigDFSFPhoDEkQAIkoE8CFCN9xp1ekwAJkICmCFCMNBUOGkMCJEAC+iRAMdJn3Ok1CZAACWiKAMVIU+GgMSRAAiSgTwIUI33GnV6TAAmQgKYIUIw0FQ4aQwIkQAL6JEAx0mfc6TUJkAAJaIoAxUhT4aAxJEACJKBPAhQjfcadXpMACZCApghQjDQVDhpDAiRAAvokQDHSZ9zpNQmQAAloikCuipEhNhYPHj1CtMFgEyiuzs4o4OEBZycnq9qjHVbh4s4kQAIkYHMCuSJGiYmJiBEC9N/9+zZ3SDZYuGBBuAhhsrOzy7B92pEt+NkoCZAACVhNIFfEKFZkRPcfPkSM+Dc7NheRGRX09ISTmQyJdmQHfbZJAiRAAtYTyHExSkhIwCNRmouIirLeWiuO8HJzg4co2dnb25s8inZYAZO7kgAJkEA2E8hxMYqLi0NYWBiymhP99ddfKFWqFAqKkpypTY4aeXt7w9HR0eTn1thx7do1fPXVV5B9yk322bx5c3Tu3NlseGxph+zs8OHDiIiIUPr18vLCK6+8ksqG+6L0aYqJOTvMOsIdSIAESCAbCeS4GBnEWNHt27fh4OqaKbfWr1+PnTt3YtSoUahevXq6bcRHR6N48eJwFmNHpjZL7Zg9ezbkjxQe2Z8UQCkIGzZsUP6/fPnydAVR9msLO6TAzJkzR+lT/l6tWjXFpeDgYJQuXVqxTfI4evQonnvuObi7uz/hsjk7MhUMHkQCJEACNiKQK2J08+ZNOJm4YWbkkxQAecMtUKCAclNOLyNS24iNjESJEiUyFCNzdkihkUKkCo9s+++//0aZMmUQExOjiID8Xe6X3pZVO2Q21r9/f0WEJk+erGRkqu/yb1KY5d9HjBgBTzFO1qNHD5OmmLPDRucTmyEBEiCBTBHIFTG6ceMGnMV4jvEmS2HXr19/ouwk95HZkBQiuXXp0gUjR45UMoKMNoMYlypZsmSGYmTKDrVNeaOvX7++0pcUA7mFh4crGYq/v7/yf7mPzI6kWKUtl6ntZMUO1QbpR0YCLMueUoy6deuGBg0amBRqc3Zk6uzhQSRAAiRgIwKaESPpj8x+ZJZx5MgR5eYuMw9ZFpNP/3JTBUtmC6pQpFeqM3fzlWW6jMRIFUDZt+xDTnjo2rUr+vTpg1atWqXgf/PNNxVbp0yZYjIkWbFDCqFkIm3IKBP08/NDxYoVcfr0acUGKZhpN3N22Oh8YjMkQAIkkCkCmhIjNduQQtOpUyclI0kvA5LCJEVJCoWpfczdfM2JkTpWJLM1uU2bNg2rVq3CyZMn4Wo03qVOYpCZi6kts3ZYknXJ/qRQTZgwAQcOHMDx48fRr18/ZSyJYpSp64EHkQAJ5BIBzYnRpEmTFIGR5bisbJkVAbVPeVOXN3qZmfz5558YMGCA8pEch6pataqSITVu3DhlRp2txUhmZlIQZZaY3iYFuVmzZpg4cSK6d++u7CYzSVNlQ3M8ssKax5IACZBAVgloSoxkNiCnUKvjQ6acSzt1Wd6QszMzUmfLyYzo8uXLOHTokFLe+/XXX5Ubv/yRZTpbi5EUIulreuU/+YVdWS68d++eIpgODg4KLpmpyZ+0Yk4xyuqlwuNJgASyk4CmxEjeVOW0ZePxEXlD3rVrlzKLTv497UQBeeM1JQTmbr7mynSyBKh+l8h4DGb06NFwcXFBQEBAysQKKRzpZXKZtUO2Kbf0hHns2LEIDAzE3LlzlZKmuskxLFnepBhl52XDtkmABGxNQFNipDqnDtrLrEeW7KTgpM1+1KxBZiqmSlmZFQFjwHICgRQ647JXu3btlEkW8vtLLVq0UERSimV6W2btkH3IMqEpod26dSsGDx4MHx8fJUMzfssEy3S2vkTYHgmQQE4Q0JQYSYGR2Yg6xdvUjVgKlCoQ8vf0SmSZFYG00KUgSbGRYzhyrEhmLB9++KEyUUC1JaOZbpm1Q83MTp06haVLlyolQvmFVilAY8aMQaT4HtXixYvRpk2bFJN37NihZEXy2LQ2mbMjJ0429kECJEAC6RHQlBhJI2VWpM5QU8dLpEhJgZI3WfWVPKpDUhRMjauYu/maK9MZA5NZihzL2rhxo/LFUvl/aYf8m7ktK3a8/PLLigAtW7YMvr6+WLNmTUp3FSpUwL59+1J1L7nJVwSZssucHeb84OckQAIkkJ0ENCdG0lnjL7mac16KV3ZMYDDuV2ZActxIThiQr9qRIiDLh23btjVnHsyJQEaiqAqzOib12WefKWNEcpMC9dZbb6X0r05FV78XldYwc3aYdYQ7kAAJkEA2EtCkGKkZksx61JeCmmIgB/fTG+A3d/O1JjOSkwJMfXcnPSE0tjWrdqjCLMtvsmS4bds2rFixIuWLwOrYmToVPLMTKbLxHGPTJEACJGCWgGbFSFquTvWWZTFjUZKlKJkJyAkE6W1ZFQHjduWNXv3yq/HfTU2ssDYjsUQU5ViQfP/cgwcPlBKmLNHJGX2yVCgzIblIoPw8KzzMnincgQRIgASykYCmxcjYb/VVQFKIMnpbt3qMLcUorRiqfcjJFuZssaUdUhRlNqYKo/odJ+OXp2ZWnLPxHGPTJEACJGCWQJ4RI7OepNnBliJgbd/G++cVO7LiI48lARIggawSyBUxkks3OIuJAIlZtT6d4+3E3w0WLiFBO7IpCGyWBEiABKwgkCtiJBfXC/3vPxQXSyNkx3ZbvK6naOHCFi2uRzuyIwJskwRIgASsI5DjYqQu933h4kXEiiXIy4nBePvk96pZZ/qTeyfEx+PShQtwEkuNVyhf3qJlx2lHVqnzeBIgARLIOoEcFyO5LtAjsfCdLNWFXL2KuyJDkm8TkH+Xs8Iys9nZ2SmvxJHfASoiMiIfsfqqfLu2h1jAz/hVOcZt047MkOYxJEACJJA9BHJcjKQb8o3TcppyaGgo/hOrlMrfZcaUFTFyFNmQfE9cYW9vFC1aVPndyckpQ2q0I3tOKrZKAiRAAtYSyBUxkqIjxSc6OhpRUVHKvzJTkZu1giSzIrnJJRTkd29kdiT/leKkfpYeFNph7enC/UmABEggewjkihiprkgBUstz1opQWhxqqU791xpctMMaWtyXBEiABGxPIFfFyPbusEUSIAESIIG8SIBilBejRptJgARIIJ8RoBjls4DSHRIgARLIiwQoRnkxarSZBEiABPIZAYpRPgso3SEBEiCBvEhA22IU+ReWDu+H6TuvIxLuKN3cD6sX90Fl5xxGTTtyGDi7IwES0BsB7YqR4Th8a7fGvjZLEPhRC/ggBNv9OqDLr21w8HgA6uSUINEOvV0T9JcESCAXCGhWjC5+UgsvBE9E2Jr2eKw7d7CgSTls7HYNewcWyhFctCNHMLMTEiABnRPQqBhdxfR6L+DPSeFY3Sp1hAxCnNyXv4nQPUOQ/XJEO3R+fdB9EiCBHCKgUTHaj0ElB+Gp7ecw8/k0JE77oXwXYNO5ALyQ7ZBoR7YjZgckQAIkIAhoVIy24d1Co1Fqf26LEe3gVUICJEACOUFAo2J0FuNrNEXoghtY0jANhm294DmlOoKP+qJMthOiHdmOmB2QAAmQgHYzI+DQ+z7ohLW4Oe8Vo0AZsLn705hU7XecHl8+RwJIO3IEMzshARLQOQGNZkYiKnfWoPUL01Hym+2Y36KUmFFnwPVvu+C5MU5Y8vcGdM3+2QtJpwbt0PklQvdJgARygoB2xUh4bzj/Ld7t8AF+/NcTrnH3EF2yK77ZuRhdSuXUl4ySQkA7cuJUZB8kQAJ6JqBpMdJzYOg7CZAACeiJAMVIT9GmryRAAiSgUQIUI40GhmaRAAmQgJ4IUIz0FG36SgIkQAIaJUAx0mhgaBYJkAAJ6IkAxUhP0aavJEACJKBRAhQjjQaGZpEACZCAnghQjPQUbfpKAiRAAholkGtiFH5iI1Zt3YvjIZFJaLxKoVq9ZujWrDZ8irrbHNfGvqWw4BpQZvB1rOhg8+bZIAmQAAmQQBYI5JoYnfKrgle+vgVDbAE8XcBRccEQEYr78Q4o8MI47Nzta9PVXAPbO+PzG0DJkQYEdc8CMR5KAiRAAiRgcwK5Kkat9xvg3HALLgaoixZF4qcBVdHtqAEujTaleUlq1nynGGWNH48mARIggewkoDExEq4eH4NnOx2AwaUxtssF9O7shm+nXph/PBwx8YmAnRM8ynTC8p+XJL2jTi62N/IMYkKvIDbkEv6LiUNCoj0cXErijYB1+GFYbWXZ8sdidBavzm2CrZFOqLXsAhaoLwU3bEHXCjMQklgcw05vQY+cehFrdkaXbZMACZBAHiGgPTHaPwTFhpxCvEdb/HH0LSx9sSt+fOSEuot2Y0nTYog8MgY12+xEpGNNfBmyEq3PCTFqMB834pxQY8iP2P/py3CPPIJRdd/A+gig3MeX8cuQYkZiZMAm9+7wmXEVicWH4OyW7sry5eFLm+H5DRGwrzYXIamWrcgjkaSZJEACJJCHCWhLjNKKiM+HeGpaCFBsEO4I0VDf1b1viA8mXgIK9wvB5spCjJrtQpRjPay5sQiN1GAcfh8leh5FnNub2HdmCk6kGjM6jGE+/4dj8e5otf8EJpa/CP9a7bDP4IxG38v/5+GI0nQSIAESyIMEclWMas8LQUJcIuzsJLlEJCbaid+LodWC7Vjbvzrc17SH48CfkBAbn7zPY8IO7k+hzkd7cajlKpRvvx8G54YIkmW9lF3EekieC3FbrAf78cPvEJVmAsPFmfXQYFsknF5chn8az4fP3JtAiQ8QIvrM2QUq8uBZQ5NJgARIwMYEclWMUk1gMBzHqFrd8GuMC5qsPYGZtYUkiCXGn5pwAYmF++DKTwOVctoTmxwzsjozEq2kjBEVRtWKZ3HlkT2qzzUaQ7IxaDZHAiRAAiSQPgHtiJHUh+N+qPG2KLk51cPKs6Lk5nwa42s0xbr79qjo/zu29BErvkb+haUL9yLCqRR6fdAexaQYvTQH1xPsUWHEzziWMmbUEpsf2KGS/1ns7JN6zEid2i2XFO+57x5u/VsF5cp0wPdHfcEKHS8XEiABEsh5ApoSI+n+qUk10EhOJKg0XZlcUEyMI/m36ogZR8OU2XSylOfoWhpt5m3Fd30qw1mKUfu9eBD5L+Ki/kVE8my6VPuIdk1O7b6zCK/7fISzcEKT7/7FOlHK40YCJEACJJDzBHJNjGzmqiJGpsaMLOhBitFLG3Hf4TksvjAP9S04hLuQAAmQAAnYnoD+xOjOFswOvIB7sUXEmNQkbIlwRvlxR7G5M79YZPvTiy2SAAmQgGUE8r4YXV2PEf6H8aDAK5gyp4uYO2dmM5zHhgnj8fm2kwj1rIg335uDebLcZ+44fk4CJEACJJBtBPK+GGUbGjZMAiRAAiSQUwQoRjlFmv2QAAmQAAmkS4BixJODBEiABEgg1wlQjHI9BDSABEiABEiAYsRzgARIgARIINcJ5JoY5fRKr7lOmgaQAAmQAAlob8wop1d6zco5cHX9SEw6/AAFXpmIL7qYnTyela54LAmQAAnokkCuZUZSjHJypdesRNe0rVlpkceSAAmQAAkYE9CYGAnTsmmlVygrxvbA3GP3EJsgV4y1h9NTdfFB4P8wUyzaJ7fA9lWw+to9/BkSiVtRgFvtAeiH1Vh6LBxR4hg72MPRI3npirFVeSaRAAmQAAnYiID2xChbVnq9/cTbv3H9W7SvMxHn473QaUfSkhWB7Quh/4EY2JV+B5u2LsZbcllzsTEzstHZxmZIgARIIB0C2hKj7FrpdcZl1Bv3DxK9e+L6niEp6yKFL2qCUqvCYFdxGh6ubKW82fsTubDsgH/FUuWP31VHMeL1QwIkQALZSyBXxSjHVnpdGoUBX90Fyk1G2LKmj4nKN34POolEz3Y49dMgfJ9mNVh1R4pR9p6EbJ0ESIAEclWMcmylVysyo89vACVHGqAuwMcyHS8SEiABEsh+AtoRI+Fr9q30mv6Y0T8JBdF19xl88nw6C/AJu4LFgn9Nf46G8ytrcWVaDRhkXJyd+abv7D8/2QMJkIBOCGhKjJQsJJtWerVsNp0zTGVGuLMGbz8/ENvuxSLOzg0FKg/CrpMz8ZJOThK6SQIkQALZTSDXxMhmjmVlpVebGcGGSIAESIAEskKAYpQVejyWBEiABEjAJgTyvhhZu9KrTbCxERIgARIgAVsSyPtiZEsabIsESIAESCDnCSQmIjo+XunXrkOHXomrA7+02gi7v/82eYxT6dKwL1DA6vZ4AAmQAAmQgL4IJDx4AIObW/aIkZ2rK5zLlhUyZ6cvqvSWBEiABEjAcgIiKzJcvoyEMkkrItg8M1IaFYLkWLQo7D09KUqWh4Z7kgAJkED+JyBEKOHhQ8SFhiIxOhqJlSplTYzyPzF6SAIkQAIkkFMEMp0Z5ZSB7IcESIAESCD/E6AY5f8Y00MSIAES0DwBipHmQ0QDSYAESCD/E6AY5f8Y00MSIAES0DwBipHmQ0QDSYAESCD/E6AY5f8Y00MSIAES0DwBipHmQ0QDSYAESCD/E6AY5f8Y00MSIAES0DwBipHmQ0QDSYAESCD/E6AY5f8Y00MSIAES0DwBipHmQ0QDSYAESCD/E6AY5f8Y00MSIAES0DwBipHmQ0QDSYAESCD/E6AY5f8Y00MSIAES0DwBipHmQ0QDSYAESCD/E6AY5f8Y00MSIAES0DwBipHmQ0QDSYAESCD/E8i0GCWKpWPVzfj3/I+MHpIACZAACagE7OzsUmAY/24toUyJkRQfUz/Wds79SYAESIAE8i4BKT6mfjLjkVViZCxA8fHxcHVzg7Ozc2b65TEkQAIkQAL5hIDBYEB0VBQcHBxSiZM17lksRqoQJSQkQAqRZ4ECSsfcSIAESIAESEDqwsMHDxRdsLe3TxElS8lYJUZSiOLi4pSMyMXFxdI+uB8JkAAJkIAOCMTExCgZkqOjY4ogWeq2RWKkZkVSiGJjY1G4SBFL2+d+JEACJEACOiLw3927cHJyUgRJHU+yxH2LxUhmRVKIoqOjUfyZZyxpm/uQAAmQAAnojMDtW7fg6uqqCJJarrMEgcVipGZFkZGRKFW6tCVtcx8SIAESIAGdEbh+7Rrc3d1TZUeWILBIjNRJC7IeKMWojI+PJW1zHxIgARIgAZ0RuBoSooiRnFegTmawBIHFYiQzIylGjx49wrNly2bc9p2/sC84NHkfFxStUB0VSnmBUx4sCQn3IQESIIG8S+DK5cvw8PBQxEidyGCJN1aJkRwveiQyo7LmxOjAPIw+WgZtahVSbIj+9zgOnPdBX79OKOdoiVlG+xxdhmUYgAH1rDwu3+x+FMuWAQP0CyDfRJKOkIAeCFyWYiQyIzlulK1i9FBkRuXKlcuYqRAjvxvtEdD1cTnv3y3+WFlgNMa84YG4sPM48NMv+CvCCy+2aI/6pZNyJuO/l69dD6+7BuObTftwBc/i2UIFUatrD7xiPJEv5hpO7D2E4xcj4PViC7SvX9pE9hWHsPMH8NMvfyHC60U0bVMPZd2lIsbg2ont2Hf4BlC+KVo1rQxvRSjPY1tgGGo2TMSBHX/AUPQ1NG39ArxvncD2fYcR6lwdjVo0QsWC1u4r9xd9HtqCHX+ktvfu4UD8VrAlKlzdht0XpTmt0LSyNxylLQs3YN8V4NlnC6Fgra7okQqAHk5t+kgCJJCXCFy6dAmeIjPSrBjF7Z+NgIhemPj8r/BfcR+t+nZARa87+H1lIIJrjsSw10KwfNJBVHuvN2oXjMa1k5fgVLsS3PcuxQr0Ru/aDvAo5A1FR5LyLRzdvAFxNVqhZglH3NyzGP+L64Ox7Z9OFbeQzf5Ycb8V+naoCK+IM/hu4120fb8pQhZNx6FyfdCnfjHE/LMd3+4Cuo7pKjK3A5g3eBMim/dD/1fFZ1d/wJItV/HU0w3RrmsNFLz/G75eEY63p/ZEJViz7yMcWfQpTr0wCD3rFMT9P9fj29+qYMSQl3F3nR9mnCiBzgO6okbBGJxZsxDBL43HsJcdERG6F0tXAL1714aDRyF4PwaQl85P2koCJKATApoWo5g7x/Hdwh0oPGQcSm2ZjHPNJuMdNbmK+x2LZ15Bm3GVsOPjnSjVbxAaVzAaXxJZ1jy8j/dfSyeSMREIjYgRHx7HijWe+DDVjn9gyeRzaDb5HaTK5e5uhf9KL/iNaiiyj6RNZm4bik8UAiAEZuw1tJmhHhOCdX4bUdx/FBom73xgnh9utA9AVx8r9vXYilkbnsGowXVS+vxjySxc7/gRnv/ZDxuL+2OU2kHIOkzY6oOpw14Wlok+5gHvpwtAJ2c43SQBEsgTBDQnRsN3xKLKM25J8LzKo2mrpqgs6mAH5s1EVH9fNPNQuYqbvf8OVJo4CDXU8t2VG7jpUBv9PmiDckfSE6M4BK+ejo1RNdCgwlOisUvYd6oSJqe6aYsb+cwo9PdthpTuZLfiZj9zbw349qn2OLhC9PzD38XENucwz+8G2gd0RVKRUYrRFpQMeB+qHqYSI0v3xToEbHBA/TrGdUZ3+NStB/sgP2wpGfBYcIV9fltKIkDxhWKUJ65AGkkCJKAQ0JwYpR0zUuN0d/t0LInpBd/2JZUMIe7SdwjYWRF+g2sgPsZFzMBI2jNk3QRs9ZmKYXHzMDOqP3wfq1dyU+exasYJvDo2OYP5dwsmry2SRozuYvv0JYjp5Yv2JZXecOvyLXiXDceqjw+i5uTBqKP0dx/7Zy9G+Ltj0f5pcfO3VGBkZmTxvqdFGfIYXvLrhxpKn2IsK+wRvL0LCl/NiJEpQeWJTwIkQAIaJJBnxEje+H9fPgeb73ihhGs0QhPKo6McK3E5jZUz1uG6VwmIERXx9xroJTOjmCNYNH0Hor3dUPi199G7nmsy/jhc2vo5Vgd7wtszBg+dHRAfWRt+actZ93/H8jmbcUe06/roX8TW7IPRbUTR7tJWzP3qOOJLFIVDaCjcGw/CwIbPCIG0RmCs2VcK7+M+EXoTDrX74QNhy40MxUiONU3HjmhvuBV+De/3rgeVgAbPQ5pEAiSgcwLaEiOdB4PukwAJkIBeCVCM9Bp5+k0CJEACGiJAMdJQMGgKCZAACeiVAMVIr5Gn3yRAAiSgIQIUIw0Fg6aQAAmQgF4JUIz0Gnn6TQIkQAIaIkAx0lAwaAoJkAAJ6JUAxUivkaffJEACJKAhAhQjDQWDppAACZCAXglQjPQaefpNAiRAAhoiQDHSUDBoCgmQAAnolQDFSK+Rp98kQAIkoCECFCMNBYOmkAAJkIBeCVCM9Bp5+k0CJEACGiJAMdJQMGgKCZAACeiVAMVIr5Gn3yRAAiSgIQIUIw0Fg6aQAAmQgF4JUIz0Gnn6TQIkQE6aRnQAAAydSURBVAIaIkAx0lAwaAoJkAAJ6JUAxUivkaffJEACJKAhAhQjDQWDppAACZCAXglQjPQaefpNAiRAAhoiQDHSUDBoCgmQAAnolQDFSK+Rp98kQAIkoCECFCMNBYOmkAAJkIBeCVCM9Bp5+k0CJEACGiJAMdJQMGgKCZAACeiVAMVIr5Gn3yRAAiSgIQIUIw0Fg6aQAAmQgF4JUIz0Gnn6TQIkQAIaIkAx0lAwaAoJkAAJ6JUAxUivkaffJEACJKAhAhQjDQWDppAACZCAXglQjPQaefpNAiRAAhoiQDHSUDBoCgmQAAnolQDFSK+Rp98kQAIkoCECFCMNBYOmkAAJkIBeCVCM9Bp5+k0CJEACGiJAMdJQMGgKCZAACeiVAMVIr5Gn3yRAAiSgIQIUIw0Fg6aQAAmQgF4JUIz0Gnn6TQIkQAIaIkAx0lAwaAoJkAAJ6JUAxUivkaffJEACJKAhAhQjDQWDppAACZCAXglQjPQaefpNAiRAAhoiQDHSUDBoCgmQAAnolQDFSK+Rp98kQAIkoCECFCMNBYOmkAAJkIBeCVCM9Bp5+k0CJEACGiJAMdJQMGgKCZAACeiVAMVIr5Gn3yRAAiSgIQIUIw0Fg6aQAAmQgF4JUIz0Gnn6TQIkQAIaIkAx0lAwaAoJkAAJ6JUAxUivkaffJEACJKAhAhQjDQWDppAACZCAXglQjPQaefpNAiRAAhoiQDHSUDBoCgmQAAnolQDFSK+Rp98kQAIkoCECFCMNBYOmkAAJkIBeCeQ/MYoMRWikCKd7URR1t0FYbd2eDUxiEyRAAiSQ3whoU4wM17F92iCM+OJnhDxMgJ1bCdTp6osFn/bDi085ZxyDwNZofUDs8loQgnpkPVzB42ug3a/RcG3yPc5Mqpb1BtkCCZAACZDAEwQ0KUY7+5TDxAtxKNz3ELb0LYbIP9bix78d4V6lO9q/YCaKNhaj1L0FonX5tXiA6vji4kyYM4XnW2YInIJv+RH4CwXQ7WIQbPA8kRkjeAwJkEAOE9CgGAVjfJWBOJnogQ5ndqJv2kQoOAD1/f4CCnbAoRUdFVwbe9fHpvtA9YBD8DshMqM993D52F2EXg3B/VhnFC7fDp/8bzn6VnZGcEBvLAq+gH0H/8HVm/cQ61oElbqNRc/QhZi1+wruxbqicMXumPfjPHQpJTrf2Bu9fxOdvPQOCn/SGwtP/Yd42MGpSBlU6bEQf8xuYRSyYAT0XoTgCwdwLCQE1+5EwdGrFJrN2obv+laGMwy4vn0aeg1fiOM3HgEeJVF76HysHOeCWZ3W4z4qYOIPH6I8rmJe0y7YE+WKBiv34cPyQPhXvTH2LODScgW+aGLUpeE8vu7fCeO/v4j/DE4oULI2hs5fiXFvlcK9n/zxzqB5OHbzAeJcCqNcmylYu3QgnnNX7dyHg/9cxc17sXAtUgndxvZE6MJZ2H1FcimMit3n4cd5XVDK2dr9hX2Rf2LpwHcxZds/CItxgXfFVpi0eikGPueeEoMDx0IQcu0Oohy9UKrZLGz77nXs7vomPv7hKiITAXuvZ1Cx8Vh8v3moIMONBEggPxPQoBgBFxc3RqOp5/DIqRb6z/TD+y3qoqRanjvli/IjhBgV6IaLyXW4wNblsfaBEKMvLmLmmdZwHHIciU71sOzUBvFkHYj29Rfgtr0PfP/YjCozqqDR5vuwrzoNpzZ0w7XRNdHwq1tIdGsghGYL+tweK0TmGBLcW+KXEx+jTKpMy1xmJJ7qqzTA/4QwVp4SjC19gG9bNcR3EU6oPuccZhsGoZbfecQ91Qu7t4hn/sD2aLryHhwrB+CTh+OxQfhQec4BTIQ/mrdahGNhXnju/zbgl5me8H9tJM6LbOGdA6vROuWMvIMFr9fH6vBEVJ61H0vfEE36zcHFeC+8+eZNDPQ9hVivt/HDLl+UOzUKdfsfQ6xnS2z/rSWWVmmEzfftUXXaKWzodg2jazbEV7cS4dZgIU4Jw2+PrYIexxLg3vIXnPg4XPhlzf6uWNC4ITZF2KPmgmOY/cIpjKo7DCcTvNBh/140+LwKGiRBQnASJDT8LgJO1efg3AIPZkb5+Y5D30ggHQKaFCNpq+HeHwhaPA+fL96M43fj4FyiBeZu+w59oyeYFaNaP0QBL34jbqJlFLfDF7yOVvvj4NhwG+Zfa4epV4HCg37BkkbiwyfELU2ZyFoxen2qyGsKY9AvSyCbN3zdHO0Pi6f8hjvx3vaq+OJGLLx7rsSIqtKys/ii1yqEOZXEiK8K4ZPZt4HiozAb4uf2Q/x9rgoqeRbHqCUeGDf9BlBkCPYuqP84lFeno1YvIbwuLfHbzr4i83q8Bb37PJaHAeWmnsbsOgpRBLauhQ0P7VBjUSBi30tt5ynf8kjS+ItJY22puNSAbxq/Mtx/0TXU6vwLYvAiFs8RDweiubigkRj8h8jsXt+Ab+71SB0Dw9dongQJO4NEXyzT8YZFArojoFkxMo6EYd8gVPD7B/DuiwvTzqCqmczo9V2xQL21+GVYIaUZKQgv/RgDu9orxY1wCObeAYp9EISZctDH1mLUei7uoBg+CEoeUzISs54bS2D6uUjEV2yHWkmmia0IqjRoia79i2BJ4+m4IW7hD50LwQ3PYsCrB7HsChAVboCnC1Dy471JNqtb8HhUGXIG8OyMc2lma6x7uwpWi+SjqsjI1GOC3q2Fb8KBCtO/AcalttOsGKXxK8P9Z51DlbeDcD9SZGhNyqaY6+5TG2+064mK63umjoHIXlsnzTpBEMVIdzchOkwCkoAGxSgc+7YfE7fkAmjw1iuQs7MVMZp4EXaFByBkXSxaV/gaYaiIgAsi+7gnnqrLjsU/iQXQ+XByme4jMbhSoBOOnJmJOvgdvrX64IjBAy22/4aWS1tnQYzW4e3yK3EPlfHpxdmi7bSbyKoyEKNVosDWSJTl7Cp/ikPzhW9i1uBlkSlBZEZlxfjURf/mGLvzNH5zeRnPd/gaQW2/ROOhP+L87wl49fnmmLFzohhPMt5kWfD/cCzWA633/4xRpYDzBw7i31gnFA6Zgfbf3IVd+ak4+XUzuN8RnOqvxj3HqphzbgC+t0ZcpEBYu3+tITgZ646O27dhoPDtzuXLEPkqipYti39808QglRjVynjMkNctCZBAviSgQTGKxJ9Le6Cj70+4Ju5erh72iI5xgJtPWyzf+y3eLiYU9MtWeH3cQYRFxcLO0R0O8TEoWb4o2q5KEqPmqy/i9yP3kBD3AIbYRDi7lESbZXuwvEspnE17I7QqMzIgqE9ZDNoRjvDYZ/Fc3S5YuGMy6qacGhmLUVCPSBz2b4Uu844jzCCqUgn2cClQDf1WbcHMZsIxWXYrtwx34QO/0L14r1A4vmxcFJ+LCt0zI0JTMj3jM9FwfT36vzkYQVejYEhMgL2rG8q9sx67FrwqxE30tegk7kXGCxb2cPV+BVN+/h7DKp+1XlysEqMeMLYrzt4OiY5ueLqxnKTQF9ETMhKjHrj42at4bXYw7t33RKXqzfHxnuXo5pkvrz86RQIkkExAg2LE2JAACZAACeiNAMVIbxGnvyRAAiSgQQIUIw0GhSaRAAmQgN4IUIz0FnH6SwIkQAIaJJBjYvQoMhJlxUwqbiRAAiRAAiSQlsBlMePWw90drq6ucHR0hL29vUWQ7Dp06JW4OvDLDHdOSEhAXFwcYmJi8OjRI/g8+yzs7Ows6oA7kQAJkAAJ6INAYmIiQq5cgYeHB1xcXLJHjOLj4xUxihSZkbe3NzwLFNAHXXpJAiRAAiRgEYGHDx4gLCwM7iIzkmLk4OBg28xIqp3MjGJjYxUxkj+yVOfkbGYZCIvM504kQAIkQAJ5nUCswQBZopNCJH+cnJyUzMjSKppFZTopRrJUJ8UoOjoaUeInUpTrSpUqBa+CBS3uLK/Dpv0kQAIkQAKpCUh9iLh/H9evX4e7KM+5ibEiOV4kxUiOF9lcjIyzIylI6o9BqKHMmqRYyR9uJEACJEAC+Z+AFBr5I7MfZ1ElkwKk/hhnRTYVI4lVzY7Ucp0cPzKITEmmZqoYyX3UffN/KOghCZAACeiPgCou8l9VjOSQjbPIhOQ4kSpE1mRFkqJFZTpVYFRBkpMZVFEyzoqSpChJuLiRAAmQAAnkPwIpYiRcM86OVBFSJy3I/SzNiqwSI2NBkmIjBUktzcl/5d8oQvnvxKNHJEACJGCKgCo2qiDJf6UQqX+3RoisFiPVIFV40v7LkJEACZAACeiHgLHwZFaEVFoWl+nS4jXOgpgR6efko6ckQAIkYEzAOAOyNhtK1Y4lb2AgehIgARIgARLITgL/DxYmH6HZy9zjAAAAAElFTkSuQmCC;" vertex="1" parent="1">
          <mxGeometry x="60" y="290" width="156.64" height="200" as="geometry" />
        </mxCell>
        <mxCell id="Cojx2FjzvkP0SxORyvp9-4" value="" style="shape=image;verticalLabelPosition=bottom;labelBackgroundColor=default;verticalAlign=top;aspect=fixed;imageAspect=0;image=data:image/png,iVBORw0KGgoAAAANSUhEUgAAAFYAAABeCAYAAAC5BeOaAAAZQUlEQVR4Xu2cCZgU5Z3G3+pzpmcG5nIYDtF4wiIgoEhUBDxQ8YoxJmoMmtVo4rHxiCZh1bCK+qzZGN2YoFEf3HjFqEvWM9EIGhPFZL3FxJtL5D7n6Kuq9v1/R3dNM+MMM1Ns9Omep+jq6u7qql+/9f6P72scnzeUb/1OwCmD7XemaodlsOFwLYMNiWsZbBlsWARC2m/ZY8tgQyIQ0m7Lii2DDYlASLstK7YMNiQCIe22rNgy2JAIhLTbz61iW5dMxy13rMf357wcErpP3+3nDuxtNx+Ec86oh+Pm0bIhi+o9nymD7SuBhY9OxbSpA4BsHjBt5jvmrcfZl/2lr7ve7vd/bhT73CNTMGXaQCDvcSFYc/MyLiLDnt5uMH19w+cC7MKHD8a0w+s0ixyheh0HRVYta0fzfs/1ldV2vf8zD3b2JeMw+8ohbNk7vPx57tlcpwDm3rkO35m14wLZZx4sVh8FxKMES56u2IDbubL4FIY8tV2q68uLP9Ng1/x1Mpq+UK3VKjcBK0unNx9uex7R3Rb2hVeP3/uZBTv7gn1oAUOBCKFasBK4vK7AaiYbPmlH/YQ/9RhQb1/4mQXb/vpBqGyq0mBlkZsC29lofsdtf/njRkw8NVy/3SFgT528B+5//v3efvnbvO/ck/bGbTdSrdGIAct767GdTZPowFU/WPDMZhx6xv/22zGV7ihUsBdP3xP/fqaHxR9EMO7K9/rtJNYt2A+Nu1KtUQYtBZe7dviPQO3KCkqFTHVf99O1mPWfb/XbcQV3FBrYO07ZE2efmAUqHLz6ahzjZvcfWCw+UGcCArVUtZ1agTllpWZjG7Lq+ph1wzpcd+sb/Q43FLAPn74XTjp2i1FUFK+8lsD4qzu3gkcvH4NjptQgcsyfe3Ryt126J849swGIGaii2ohRrdwTVsFzS/cYVK2vAXtbc4iM7v/iod/BPnjy3jj5aEKN8ajjPBOe+MuvVmLC9duCbbt9ElJNCYLg6457vkdg37t3JPbcp0bDLCjWeG2MkPMGbNQUDMG9GpiFTQq0g8zGHJLjn1WbX7j/CPx43hrMf+r1Hh1PVy/qV7AXHDACPzulBU4Vk/S4gOUS9bHioyoMm/VB4RguOXQUbjytXtkEyLWtPYvUGYt6dCLphWNQUZssBi3x14JquT9PigXJFLhd4JsrX+28g88GwHP70g/S2GX687h45v746ZyhmHPTKlxxY8+OqbMD71ew/vXD4aRYUgrQGI82xoOnalvWJ1F90VL1+fNPHY8TJ1FxCT5PqEj6aEvnkDq7hyfx0jju11RaVrUCT9mBqJgfLsWXTcNE1fZWGsCMYi3wux7ahCtvWY93Hx+FivoIzvn+ctx+X+/Ssn4Du+nCEagdvLmoVAEndmDg4hur8N8n74cvT0zx5EVlXBRYKe/zSJz7QreKvWTK6Zj93RalQhFlsm4TErVtRYgKLnec4wcrsAa42ILAL4AtsQkLmGnw5JlLccU3h2D6sTXw0w4ie/y22+MKTbH3HjEOXz94HWHxyGRR/iqLgcv1jcsGoC7Btp6yBzmxCg03KXbA1531x22O7+qp52JM6kAkM6ORa2sgG31d+/aPUT5RvRmDxvwVQ8cvQvO+b5tKjN9YTsCKgi1ceWfAFyxMvcPCbcuaPPabuRzvLBgJh8e6ZrmLpkmPbTfcflGs/4M94SQzOggpuALUXOoqgBnQVr0qRRJlUa7tlUBmIE79r7W4f9E76gRunHI59sJX4WYbKbwIF0EqUCwYjdZjauXxz/VcrruIVW3C6C89jF2nvMjvTj6Ur5cvsWALgfK3kwzBfGv4CYd0zv5qMwYMiagrY97dG/DNH/QsuNpvoM9g/3TMRBw8Zq2GKVBL4Vq/jfMIre/GBD5PXLxSnXQMC16I4abHdsa3Gi9HPrMHxRZVcKIC1YAtVaxHxcri+sTr5dnY0kv1oBWYdvFcVDcyOxEyFm4BslVpIKdVRLRFeFkfT72QxpHHDlRvz7fyUPf+n+1SbZ/BeheNQiSZJhyj1CBcgRzn9gJUUa4A5r1AlhON8oEomZft1uXD8bt75jFFjZE3oRJ6lEYZVSfsK+WqK9eUra6oVsH1mGW5cBXYHAcQZMngmH+9EY27rzGfYwEbawjENAvUKlYev/hSKyYdVqt8Wj72vvs24rTLtrWrrmj3Cewfpx+EQ0YF1doFXKVUgSlgTbZg4RqoiIsfRtHyMeHefx+hRslb24BcDI4soikBLGfD0tXjBteCpRW4hKvBEjDB5nJpHHv+z9G0/+oS1fL9Vr2WTEmG4KVpNpUJRJjACNj0RhcVo3vutX0Cmz1rAoMHr5Ou1FpqDaJWUbCclAAV4DaYCWiTj7asHI7nn7oFmZahymMFbIReqqAKAN4LaBXG2H+Vv7wC62HogQvxwcIDOEJDsPksctl2nHLVTRiwO7MJVVDI1WHAqiumxA4CQc3lFROpFsny8/iyGd/4EE8sXNwjS+g12CvHTsI1B24tBisLt8t748FBW7Bw5eRUkBPY0gNw2JRO4eUFV+HjZTMIU4BqqFqxXBE74CK24BMofQB1e72OCRfNRaKJPQpuz2+OYPVrw7Dwpuk49co7EWVSou1HlpL1YFVmA1uVA1+lahrs66+0YOwJz4YL9pXDD8V48S8brDq9F6nZgGbWRX4KrqRl1m+NTcjJqm2iKjn5KFpXDcErf5qNdWsPUFCtahVc7oKnDp9q9Rm8XA7LeF4OE751C4YfaRorAomqbl2WQhVtQvlJKVibb1ugFnKK/s3XOuobZfKyPoeKcT0b3um1YreeNBk1dSwICgotyQp4MK5TAb8qAWenHJwKKm1wGv5WplitPBM6iAz8OXHuQ9lAwHuVci3sKKFFsGHJaLz0wvVob9nZwNWQNVjahKRc9FaPgculDew9/VGMOfcJk6MaYi73u4TeYzOFUtV2KCT42pTHdJvvlfeJaqXBs9uT4SoWM1laKvMzAStwn48w+d+FeeWuAl5H/MK98jjzmJ7nt8ThrOCxSk4TbzeQzeVayByMinn9bt4yAr+//wF+rIaq4Eogo2J9AcvMwM9lmQOnMeXCmzB0mmn+KOuQoCdweXylcK3XW88VfFU8txT3l9U9B4dwZ/94NWbf8mq3cHul2CtGHYQ54wIpVlC1XM/FqhCf/MmnQy20+kxfVdqAGyjTdgHAYp89BOWDsj3F7dU88wEJ5NfH8ZtrHlFgJaDJUIyAVXZAtcriEazHjMDLZnDyrZejchA9V92ErIR47nO5lNYBrxX7saW2rItlDOAchQqCzUhvQvvs889uxOQzXwoH7IP7T8PJezBwKV8tUa3Zlq1PIbGvwA2oVflmyWPjpTojMM8XVB1oDfKs3M0xzL/lDrRuGaaDmSjW2IDP4CUzYHxmAn4uAy+TgUu4g3Z9CzNuuE0DlVTCRv1VBMurpQDX+n3QhuroyUleBWlm0gKWh7Ns8WYMP6b7hlGvFPvcxKMwZdcNnQeuQBDLDq5AYpQEuFKYNu0xtqDafAaiamALZPFds41nlF1dhYfuvhOtLUOUWum8hCqZAtVKoA7BilodpViCpRW4TLXcdDtmzr0Clc0suQudGH6etBffZZpglap8Xnu7r7YxaDUzRaMdeZlYIYC1r21DamL3o7y9ArvhsKNQX7upY+AqsQOtZJ/tgBQiY7cgWk//3AZwqf9q4O3LG7Fm5d5wuI8oT+zDjw/G6x+erqsvLlHlq1ynWmVhxCJQl4uolUuWVqDA0g4ybZg2826MOPa1omrVhczPXkmwW5IapCpeAt7OFoYzSM6RhsNumSr6qNrsxgySE7qvwHoHdqqAZR0eDFxBW5D1YPrF9XysEn4tmxpcj00UtQehOsw5q/Dyoq/gpZUnY6s7iK/jyVC5fAdPihUYMwPJ0CIMPqJSh0tUwKrZL6JY+mGOly4zAtBbvQzBZtrpj+2oqlmJM2//sQEbsMd0BbyP2DXjl+kX+hjaax3mwk6NtCgdfm9yLNp38+sziE98LhyP3XjIDNQNlIgf8NhOYHbMYQ1s+TKOkk6YHKi2iJcXnIDfLj4PToKpWJwtPxYJTkxUIt4mHSYpa1mBEWqMi9xHmfooxYq3EmpEoMpCqOKxPsH6ygrakE+34uIHZjG14+dJjirqU7covMUyjC5grWq1JUR34Zcf576tYlVuzY9an0Vs0rPhgF21/5fRvBN7BAqmTbdK1wPFgYVuXz9DN6e9bALzfn0V3ts4lkGCQJMCNg4/ziaMNGfYL5CSVimWNKKiWoKJ8nyjFGgsT/UqtWpvdWT6JoMWaAEC1aNaPXqs296GC+/4EZK1UiAUqBJOBPk3di/mzKYSdOo4FalJ+sv6qnIzcTbgBDyPmWCjBy0MB+yyfzodw3de3jnYTpVr1WpgHysZhYMXnv4SHn7la0xpmFdW0OuSjNIJAiZY1fVi8Io4olzeC1C1EC6BxqjYGAHHslSt+KuyAV6+VCyoVskKfPqrR8WK3373F1dxxMHORBS4ot4Icn/fTQcyW31Js223dSxozFUl5XWaRQ6hyuJylnjskJDAvjv0POw18m9arV2CDDzXQbGsyCYzFaIaL7v5RnaQGCUqBSrVWpGAnyBcqtYR5RKsgqrAso2o1EqovI/lGMQo0LgAzgpYKpdBS6xAwIq3imJ9KlY8+KKbZyFZbxQrduAJSSp2xTB4mzmxTvWNeQU0tiPWLN0wk8kwS3HbBCzFzuezG/NIHtr99PteBa836y7FqNFvIRLniRSgBS2hKxvQys3uHkduJxeX//JqlowEmmLpqxRbBOtzQkYxgNESCEPsQKnUlUBGsBx+iVKtcao2KnAztAP6K1TQYgCjWgWwHOL377xYj0LwCyos9NjMO7SCPD9XLvUKF8m9ltPrxVvFBui99GWvJckvmu/mWzNb2D48/A/hWMEf6r+DLw7bgqr6VUU7KFFlBzWXPJetYX575DJ8e85cVVl5olguHm3AFyugan0JXhLEjM9Ku1vZAQOXdB5jFF+UcwjiolxCjcqUeAWXFSEvfYEr/ir57cCBm3DBdT9SwUpd9ipZFSuIov3NfQoem9h7BaIpltaFkQYJanGC5bEIWL5t7QcZNM0MKXjd1TgTx6Wq0DCcdXhJWtVBwdvAli6RVq172Fb8+vnTsODt8VQrj5hW4IoVyEKPdXhCPsHqMS/xWeOvKiMIgOUcrFhGKzZCxcpirQC0BjmEGcc/jPFTOWal1CpANVifEmx7g4GTqVZ8l/VsN4pQTC5r4Lo+v2gpEIzHvvP3Foz4dvfjX72ygu82H43L20Zi8Mh3GC15Ih1ag53YgIFZhO4j05DE8kG1mPPkt3iO7FDRBjx27H3xVlEsF8ljZTwsooZojMdasFRrjFYQy1GtOYJN857dsqiATbNIoHJtH/e8865DwxBGeT1kq+8J2eMwbOsbYxAbvAkVw5eqS710fCzXVqkzE+WxEdz60Bp855fdz1LsFVgxmE8GXIaqwWsxoE76AcGo/yn+WgI4d0AaNyw6B2+vGsY9Ei7VKlmBAiuT3kS1KjOQdEtGEky6xaClVUu4BBzN5JVqIwKWkz8ErG2M79y8Amed9R86f9X9yYINZNN1yG+tQ+oLHxne2lcLcJPMGjawciRQBVbs4JjHu/VXeUGvwb5beylq4jk0f+F9XqalGUDgcSdqtXaQT8bQsn8G58+fVThYlXKZXFZ8VnW3ZKg8UCSoqQvkF2PVFeWIaoz+GmVWECHgSJqQVRwlBAa4S2b+GwY2sDRVULWvqsKEgNu3NrOHsNLAlHJaXmKtgHbMq8XdTMUqsKwOZWLJ138XLtj5DWfjgGwNaoZuYMnIvE+11YKAO0m3gpDNei4Vx2vDdsZNL36leMD0VgVV5bP0QpX6qF6Wrr5ErWIFolaxAao1JmAlOzCVmVRoU8Y8h8O/OL9w6RdsQAhWyY/sbPfMWECJFWRbqVZPUj9+F/TcV/+2GROu7b5P0CfFyps/rrmEQ985NO6ykufP5FwG/ApwDdhSxW4Dl5Uo+60PVx+IR9+Z2FENCrD4rDSapRTVVZOAjSgrIEi1ELLy3mLJO7L5Q5wx9RdagVapci9BqVJ6h0ahdnBRdbSKqvU5Qye3agBTSskGaET8jr/5qw9x13NvhqtY2fu7td9jk50T2hrTHKZZraDqxag3qOBOgFpLkHuP+eKihhH4+btHd37gCpAGK6MGqqy16iTQYB9hZONSnDXxFzoYFbrXhCZzxUou964GF3M55tYttAEByyXnZ1BxYc+GZfqs2Fsbv47jM030Ihf1O29g3GlVUGluHSDLYz3EKkIxgc6CDt7z+VXOIPwkfRxWZvmb2E+5SZcrCFMUK8upuz+OSUPlchUvNVmAeKqJW8X+q/VSaSSZBoxptMs4V+aTOtUf0Ip18Nh7n+CEud03uO0h9zp42R0sZ3bAQg/RSg91zWt5NbH6MaotAhZ3LLGGbcAqKZovwMdiby/M8w7BJ+muABuvZWNGgtmJzX/GEXUL2BiTalAqLDMaqUaDAx5qR4Gtn6p6wWYDss60tS3FdC2poApch4OK0Ut28BSj+xrOxNRsHXNC1tADWeU0SL6orWAbwDIuYqErBduCoSNUM+VFPb8VA7E4sgtamX695Q1X+5bbiMRyDEAbRsQ/Ql1yvUqn/DSjjDSl5TUsTztMDDEFV2GbPLaNbQVZw89zfkNurVarWIBkBE8tXYkZd73YI2/tN8XKjpYN/B7TGw7kEW6q0UVV9SYdxDoDrOBa8AG4BbUayNs81ttdZZQCt/jeCAsUxyFIPT1GW45KW/nYDr10mHFjFGztQUFn1sGrrm0VJ8KxMIlKwCJYP8EU69rtU6s6hP74b06vGHQ8zmvbg2A5ps+WU02Dh8rU1qJiTbZQ8F8F3Kg3ADqoVG0LFnIAtopfxq/VPoxGStf12ZWAFYDirea+AF57bCtn3zjsEWulir9G8MsV7+P8B7sf7i6Vc7+AlZ2+VHcBhrkxZQmi3JoGBxUFuEH1GsUq2MV1rWKtRHtv5hQZBQZgWmhKmUGVBtbtbGILV1luAHRwEJHraearuRapstifoLoF7LrkBgz9WfctwlKo/aZYu+PltIQILcHjZekxiNXUOVQuu0UCLQiyYBMmLSso2AQ59XpzqReeC0IsVWwXyrVfgNxbjw00tO2E6HZCzbAYiJnLX1VaVVkkb5Pione3flOsfPwFg4/ED1tGEaSollMqCbeyOoaaARauzW9LgBa8uOidFmzpvVZ0iR0EAQafU9stGEmrRLVclN9qO2gTqG0VVKn1Vb4l4WDO6rdx7cLe/7CuX8HKKfxqp5k4PN2o7ECU6xJuJBFDrYwjMRVS04JEsQFVFgNdRyvYxhoK79Fgi6o2jy3UAtCgNRjAaua5NLCBrbkEp3lWIJbQgUqUKhXWI5kl+NrT3f/Y5NO03O9g5cPmN5zFPsIAA5e/ESBcSSurqypQWcnfgRX8NOiz1m+LWUMHdQa9VwG2qg2um21KqJ34rSEhQ93rpQ8gzXMqtZhaOXi/diX2nb+gd9d/4F2hgJX9/7X+XzA0x1qfqpXFpYIFcDxRwXQswkECdvc7BKttIQcDmQJZGtxkkw1eBU+2V3/nYNPZKLZwalGM/QdRaJSXvQQsqa6W1KzC6Gd+32eo+lBD/O/6f19/DkbnqgvK1RmDQOY8U45ApDiOGJdKSYqGQF7atb8aJVrAAdhqNQjZ4jHqznGcbHOLDM3I2Bmn4csImszYlrkGvJqW1KzB2Bc57bOfbqGClWN8gnDHEi4HnwhVfjfAjMH6L1itJWqQSkV5z9HUwOXepb8amMVL3fhyAXLRDmTanAzctmT4GpmDIKMQ8gsctgsjoljey8ycJytX4JS3ezahuKfcQwcrB3J10wn45/QePCGpjgSuBmwDnPyGQOYRVNImElRQPC6BTv7vrE5y22BWYAqFIGSXw9oeh8QzbCe2c5hGJikpLzWTPgSv/iPgRA4X+W9h3ofdD7X0FGjxQgnRCkoP5s3ai1CvZkdzhqCCIrbAdYEsP9EQNfNPHsc41yseTbLXzeEYaclKn7CQCciq/v1BnvsTdbtsX6Zl3hbndBmURGeHdWS+l260iEoF8tKK9Rj7/oPby6vHr98hig0ezTVNJ+KMzO5s8VmgBKTgSnUmNqF+c2i26bJXtgg836RbipGNTby07S8XFTx5bBXJPcq6bNNb2Vdl7T/bWYy5S/qWTnVHeIeDtQd0z05nYCp7uY7PS14FHQ1Q4Kl1E6DUvYwCl6RPEfUFaCXqwQXxTlkR6BqwPLbQ5dcvDyWW4ttLH+2OSb88//8G1h79vQ0zcaC7EydO67JUK1cHJG0X6l9dbRXyX/vu4q8V1dPyj4DWc14YmJgJxPL4TXQpfriiZ6Or/UJVHeoO9NhPO+gTBx+Eb2RGYJRXhxoFWYNVrEyQkvdbwGqTFqi6qYqOF7vHIPixk8Gi5Bqc//ED/cVpu/fzDwO29MgvHTQD+3pNGO5WocmrQIXMj5XmlFIjm9EEL0s7bWJFpA3Loq04Z/U92w0grDf8w4IN64R31H7LYEMiXQZbBhsSgZB2W1ZsGWxIBELabVmxZbAhEQhpt2XFlsGGRCCk3ZYVWwYbEoGQdltWbBlsSARC2u3/AYbAOJtMy8SkAAAAAElFTkSuQmCC;" vertex="1" parent="1">
          <mxGeometry x="112.56" y="230" width="54.89" height="60" as="geometry" />
        </mxCell>
      </root>
    </mxGraphModel>
  </diagram>
</mxfile>
